<?xml version="1.0" encoding="UTF-8"?>
<svg width="65px" height="65px" viewBox="0 0 65 65" version="1.1" xmlns="http://www.w3.org/2000/svg" xmlns:xlink="http://www.w3.org/1999/xlink">
    <!-- Generator: sketchtool 57.1 (101010) - https://sketch.com -->
    <title>75279EBD-3A27-4D78-B50B-4923A7A2AEDD</title>
    <desc>Created with sketchtool.</desc>
    <g id="Careers" stroke="none" stroke-width="1" fill="none" fill-rule="evenodd">
        <g id="7-careers_landing_desktop" transform="translate(-785.000000, -2076.000000)" fill="#974771">
            <g id="How-We-Hire" transform="translate(0.000000, 1679.000000)">
                <g id="footer-elements" transform="translate(225.000000, 348.000000)">
                    <g id="quick-link-ctas">
                        <g id="quick-link" transform="translate(510.000000, 0.000000)">
                            <g id="ic_2" transform="translate(50.000000, 49.000000)">
                                <circle id="Oval" fill-opacity="0.1" cx="32.5" cy="32.5" r="32.5"></circle>
                                <path d="M28.7576055,27.8435013 L22.8635918,27.8435013 C23.0219177,24.4765526 24.0977983,21.8275959 26.0912659,19.8965517 C28.0847336,17.9655076 30.6430985,17 33.7664377,17 C35.6951356,17 37.397114,17.3996423 38.8724239,18.198939 C40.3477339,18.9982356 41.5279642,20.1511861 42.4131501,21.6578249 C43.2983361,23.1644638 43.7409225,24.6958366 43.7409225,26.2519894 C43.7409225,28.1052259 43.2047813,30.0999009 42.1324828,32.2360743 C41.0601844,34.3722476 39.099131,36.8974213 36.249264,39.8116711 L32.686948,43.5039788 L44,43.5039788 L44,49 L22,49 L22,46.1564987 L31.8233562,36.3103448 C34.1982454,33.947822 35.7778829,32.0486367 36.562316,30.6127321 C37.3467491,29.1768275 37.7389598,27.8788741 37.7389598,26.7188329 C37.7389598,25.5163512 37.332356,24.5225503 36.5191364,23.7374005 C35.7059168,22.9522507 34.6588222,22.5596817 33.3778214,22.5596817 C32.0824273,22.5596817 31.0029484,23.0335938 30.1393523,23.9814324 C29.2757562,24.9292709 28.8151786,26.2166143 28.7576055,27.8435013 Z" id="2"></path>
                            </g>
                        </g>
                    </g>
                </g>
            </g>
        </g>
    </g>
</svg>