<?xml version="1.0" encoding="UTF-8"?>
<svg width="65px" height="65px" viewBox="0 0 65 65" version="1.1" xmlns="http://www.w3.org/2000/svg" xmlns:xlink="http://www.w3.org/1999/xlink">
    <!-- Generator: sketchtool 57.1 (101010) - https://sketch.com -->
    <title>03731F53-A51C-4039-B62E-B21641838E71</title>
    <desc>Created with sketchtool.</desc>
    <g id="Careers" stroke="none" stroke-width="1" fill="none" fill-rule="evenodd">
        <g id="7-careers_landing_desktop" transform="translate(-1293.000000, -2076.000000)" fill="#974771">
            <g id="How-We-Hire" transform="translate(0.000000, 1679.000000)">
                <g id="footer-elements" transform="translate(225.000000, 348.000000)">
                    <g id="quick-link-ctas">
                        <g id="quick-link" transform="translate(1020.000000, 0.000000)">
                            <g id="ic_3" transform="translate(48.000000, 49.000000)">
                                <circle id="Oval" fill-opacity="0.1" cx="32.5" cy="32.5" r="32.5"></circle>
                                <path d="M28.7862069,25.2847896 L23.2206897,25.2847896 C23.5103463,23.0340772 24.3172348,21.2252496 25.6413793,19.8582524 C27.4896644,17.9527413 29.8137791,17 32.6137931,17 C35.1103573,17 37.2034398,17.7939511 38.8931034,19.381877 C40.5827671,20.969803 41.4275862,22.8545738 41.4275862,25.036246 C41.4275862,26.389435 41.0586244,27.6252371 40.3206897,28.7436893 C39.5827549,29.8621415 38.5103519,30.7665553 37.1034483,31.4569579 C38.9517334,32.00928 40.3965465,32.9723772 41.437931,34.3462783 C42.4793156,35.7201795 43,37.3391493 43,39.2032362 C43,41.9372305 41.9931135,44.2534964 39.9793103,46.1521036 C37.9655072,48.0507107 35.4000156,49 32.2827586,49 C29.3310197,49 26.9241472,48.1059421 25.062069,46.3177994 C23.1999907,44.5296566 22.1793112,42.096024 22,39.0168285 L27.7310345,39.0168285 C27.9793116,40.5909464 28.527582,41.7611612 29.3758621,42.5275081 C30.2241422,43.293855 31.2965452,43.6770227 32.5931034,43.6770227 C33.9448343,43.6770227 35.0655128,43.2420755 35.9551724,42.3721683 C36.844832,41.502261 37.2896552,40.439057 37.2896552,39.1825243 C37.2896552,37.8017191 36.6896612,36.6349562 35.4896552,35.6822006 C34.2896492,34.7294451 32.558632,34.2392666 30.2965517,34.2116505 L30.2965517,29.2407767 C31.6896621,29.1303123 32.7275828,28.9128387 33.4103448,28.5883495 C34.0931069,28.2638603 34.624136,27.8185573 35.0034483,27.2524272 C35.3827605,26.6862971 35.5724138,26.0856558 35.5724138,25.4504854 C35.5724138,24.6220023 35.2827615,23.9350621 34.7034483,23.389644 C34.124135,22.844226 33.3655219,22.571521 32.4275862,22.571521 C31.5999959,22.571521 30.8482792,22.8235142 30.1724138,23.3275081 C29.4965483,23.831502 29.034484,24.4839226 28.7862069,25.2847896 Z" id="3"></path>
                            </g>
                        </g>
                    </g>
                </g>
            </g>
        </g>
    </g>
</svg>