<?xml version="1.0" encoding="UTF-8"?>
<svg width="37px" height="33px" viewBox="0 0 37 33" version="1.1" xmlns="http://www.w3.org/2000/svg" xmlns:xlink="http://www.w3.org/1999/xlink">
    <!-- Generator: sketchtool 57.1 (101010) - https://sketch.com -->
    <title>539ACA46-4F00-4CE3-BE41-861A2228C91F</title>
    <desc>Created with sketchtool.</desc>
    <g id="Sustainability" stroke="none" stroke-width="1" fill="none" fill-rule="evenodd">
        <g id="6-sustainability_landing_desktop" transform="translate(-289.000000, -4139.000000)" fill="#60A364" fill-rule="nonzero">
            <g id="Group-2" transform="translate(0.000000, 3974.000000)">
                <g id="quick-link-ctas" transform="translate(226.000000, 99.000000)">
                    <g id="quick-link">
                        <g id="ic_green-event" transform="translate(50.000000, 51.000000)">
                            <path d="M49.3888474,37.4294369 C48.4047928,36.0239811 46.8570099,35.187066 45.1785278,35.1197577 C44.0530472,31.4702125 40.9004593,28.6913796 36.9597244,28.2422753 L36.9597244,25.9835787 L38.0422974,25.9835787 C43.4142304,25.9835787 47.7848892,21.5489602 47.7848892,16.0984152 L47.7848892,15 L44.5371704,15 C40.646965,15 37.2823792,17.3260051 35.7218933,20.6791071 C34.3669128,18.5836689 32.0312652,17.1968303 29.3819961,17.1968303 L26.1345596,17.1968303 L26.1345596,18.294959 C26.1345596,22.5345264 29.5338669,25.9835787 33.7120056,25.9835787 L34.7945786,25.9835787 L34.7945786,28.2434211 C32.0462265,28.5584814 29.53302,30.0587418 27.9265213,32.3538137 C25.5225601,31.7594952 22.8998261,32.3323323 20.9842224,34.0425375 L20.1692581,34.770327 L13,34.770327 L13,45.7539057 L20.5063095,45.7539057 L37.2558442,48 L50,38.3018678 L49.3888474,37.4294369 Z M44.5371704,17.1959711 L45.5426788,17.1959711 C45.0159302,20.9171209 41.8528977,23.7867484 38.0422974,23.7867484 L37.036789,23.7867484 C37.5635376,20.065885 40.7265701,17.1959711 44.5371704,17.1959711 Z M33.7120056,23.7867484 C31.0983047,23.7867484 28.9114228,21.8969588 28.4083862,19.3933742 L29.3819961,19.3933742 C31.9959793,19.3933742 34.1828613,21.2831638 34.6858979,23.7867484 L33.7120056,23.7867484 Z M19.4951553,43.5573618 L15.1651459,43.5573618 L15.1651459,36.9671573 L19.4951553,36.9671573 L19.4951553,43.5573618 Z M35.8771515,30.3769529 C39.100029,30.3769529 41.9576264,32.4732503 43.017334,35.4863735 C42.6633453,35.6258592 42.3214951,35.8025795 41.9982758,36.0185391 L38.5777969,38.2720803 C38.9275513,37.5457228 39.124588,36.7302892 39.124588,35.8687422 L39.124588,34.770327 L32.3640823,34.770327 C32.1004257,34.770327 31.8466492,34.6732312 31.6487656,34.4965109 L31.1403656,34.0425375 C30.7875061,33.7274771 30.4069824,33.4487918 30.0050049,33.2079138 C31.4325332,31.4387064 33.5914688,30.3769529 35.8771515,30.3769529 Z M36.6636047,45.7046417 L21.660019,43.6928378 L21.660019,36.365392 L22.4145737,35.6917355 C24.4600296,33.8652444 27.6645584,33.8652444 29.7102966,35.6917355 L30.2186966,36.1457089 C30.8117828,36.6752968 31.573677,36.9671573 32.3640823,36.9671573 L36.7742615,36.9671573 C36.3274002,38.2457298 35.1234436,39.1637012 33.7120056,39.1637012 L28.2994233,39.1637012 L28.2994233,41.3605315 L37.865303,41.3605315 L43.1833191,37.8570598 C44.346344,37.0797198 45.8102875,37.1493195 46.8759231,37.9335336 L36.6636047,45.7046417 Z"></path>
                        </g>
                    </g>
                </g>
            </g>
        </g>
    </g>
</svg>