<?xml version="1.0" encoding="UTF-8"?>
<svg width="19px" height="18px" viewBox="0 0 19 18" version="1.1" xmlns="http://www.w3.org/2000/svg" xmlns:xlink="http://www.w3.org/1999/xlink">
    <!-- Generator: sketchtool 57.1 (101010) - https://sketch.com -->
    <title>7E553877-3739-4E09-A100-C3C4CF687274</title>
    <desc>Created with sketchtool.</desc>
    <g id="Home" stroke="none" stroke-width="1" fill="none" fill-rule="evenodd">
        <g id="1.3-home_contact-us-landing" transform="translate(-1499.000000, -989.000000)" fill="#C1A84C">
            <g id="Group-43-Copy" transform="translate(-11110.000000, 631.000000)">
                <g id="Group-42" transform="translate(0.000000, 77.000000)">
                    <g id="Group-41" transform="translate(12401.000000, 0.000000)">
                        <g id="Group-40" transform="translate(0.000000, 58.000000)">
                            <g id="social-icons" transform="translate(0.000000, 147.000000)">
                                <g id="ic_linkedin" transform="translate(195.000000, 64.000000)">
                                    <path d="M32,23.0357857 L32,30 L27.9276848,30 L27.9276848,23.5022068 C27.9276848,21.8699082 27.3386683,20.7559282 25.8646252,20.7559282 C24.7393802,20.7559282 24.0697461,21.5066691 23.7751496,22.2328845 C23.6677183,22.4925037 23.6400654,22.8538596 23.6400654,23.2172739 L23.6400654,30 L19.5663808,30 C19.5663808,30 19.6212449,18.9948711 19.5663808,17.8546576 L23.6396678,17.8546576 L23.6396678,19.5762113 C23.6314073,19.5890872 23.620673,19.6029703 23.6128984,19.615452 L23.6396678,19.615452 L23.6396678,19.5762113 C24.1808438,18.7498358 25.1473274,17.5693306 27.3106178,17.5693306 C29.9907886,17.5693306 32,19.3052053 32,23.0357857 Z M15.3051333,12 C13.911531,12 13,12.9062584 13,14.098019 C13,15.2638089 13.8851592,16.1975708 15.2510642,16.1975708 L15.2782754,16.1975708 C16.698868,16.1975708 17.5823485,15.2639841 17.5823485,14.098019 C17.5555791,12.9062584 16.698868,12 15.3051333,12 Z M13.2419411,30 L17.3140797,30 L17.3140797,17.8546576 L13.2419411,17.8546576 L13.2419411,30 Z"></path>
                                </g>
                            </g>
                        </g>
                    </g>
                </g>
            </g>
        </g>
    </g>
</svg>