<?xml version="1.0" encoding="UTF-8"?>
<svg width="44px" height="45px" viewBox="0 0 44 45" version="1.1" xmlns="http://www.w3.org/2000/svg" xmlns:xlink="http://www.w3.org/1999/xlink">
    <!-- Generator: sketchtool 56.2 (101010) - https://sketch.com -->
    <title>0D42A1DC-8FB5-406A-B29F-44F97B68F454</title>
    <desc>Created with sketchtool.</desc>
    <defs>
        <path d="M28.7692294,0 C23.1814666,0 18.6153836,4.56161688 18.6153836,10.1438132 C18.6153836,10.6313552 18.6541441,11.1103349 18.717939,11.5834998 L15.23077,13.3270216 L0,5.71912979 L0,36.5468011 L15.23077,44.1546929 L28.7692313,37.3921082 L44,45 L44,14.1723287 L38.820608,11.5834998 C38.8843134,11.1106544 38.9230739,10.6310996 38.9230739,10.1438132 C38.9230739,4.56161688 34.3569908,0 28.7692294,0 L28.7692294,0 Z M28.7692294,3.38129236 C32.5278108,3.38129236 35.5384597,6.3889729 35.5384597,10.1438132 C35.5384597,12.8206936 33.6980078,15.9652437 31.7010166,18.3592475 C30.2332617,20.1188716 29.4423446,20.7112703 28.7692294,21.2914645 C28.0961141,20.7112703 27.305197,20.1188716 25.8374415,18.3592475 C23.8404509,15.9652437 21.999999,12.8206936 21.999999,10.1438132 C21.999999,6.3889729 25.0106479,3.38129236 28.7692294,3.38129236 L28.7692294,3.38129236 Z M28.7222222,7.2972973 C27.0467492,7.2972973 25.6666667,8.67060651 25.6666667,10.3378378 C25.6666667,12.0051075 27.0467492,13.3783784 28.7222222,13.3783784 C30.3976953,13.3783784 31.7777778,12.0051075 31.7777778,10.3378378 C31.7777778,8.67060651 30.3976953,7.2972973 28.7222222,7.2972973 Z M3.38461292,11.1872681 L13.5384607,16.2591747 L13.5384607,39.5318617 L3.38461292,34.4599551 L3.38461292,11.1872681 Z M19.656542,14.8954628 C20.5603865,17.0327882 21.9215941,18.945512 23.2394788,20.5253909 C24.9661232,22.5953039 26.3806892,23.8403571 27.0769219,24.4316696 L27.0769219,34.4599551 L16.9230755,39.5318617 L16.9230755,16.2591747 L19.656542,14.8954628 Z M37.8819168,14.8954628 L40.6153826,16.2591747 L40.6153826,39.5318617 L30.4615368,34.4599551 L30.4615368,24.4316696 C31.1577695,23.8406127 32.5723355,22.5953039 34.2989799,20.5253909 C35.6168647,18.945512 36.9780723,17.0327882 37.8819168,14.8954628 L37.8819168,14.8954628 Z" id="path-1"></path>
    </defs>
    <g id="Organiser" stroke="none" stroke-width="1" fill="none" fill-rule="evenodd">
        <g id="2-organiser_landing_desktop" transform="translate(-418.000000, -5799.000000)">
            <g id="footer-elements" transform="translate(0.000000, 5337.000000)">
                <g id="quick-link-icons_desktop" transform="translate(0.000000, 300.000000)">
                    <g id="quick-link-icons_red_desktop">
                        <g>
                            <g id="Group-17" transform="translate(180.000000, 0.000000)">
                                <g id="Group-21" transform="translate(107.000000, 124.000000)">
                                    <g id="Group-24">
                                        <g id="ic_maps" transform="translate(93.000000, 0.000000)">
                                            <g transform="translate(38.000000, 38.000000)">
                                                <mask id="mask-2" fill="white">
                                                    <use xlink:href="#path-1"></use>
                                                </mask>
                                                <use id="Mask" fill="#FFFFFF" fill-rule="nonzero" xlink:href="#path-1"></use>
                                                <rect id="Rectangle" fill="#CACBCD" mask="url(#mask-2)" x="18" y="-7" width="35" height="35" rx="13.5"></rect>
                                            </g>
                                        </g>
                                    </g>
                                </g>
                            </g>
                        </g>
                    </g>
                </g>
            </g>
        </g>
    </g>
</svg>