<?xml version="1.0" encoding="UTF-8"?>
<svg width="26px" height="32px" viewBox="0 0 26 32" version="1.1" xmlns="http://www.w3.org/2000/svg" xmlns:xlink="http://www.w3.org/1999/xlink">
    <!-- Generator: sketchtool 57.1 (101010) - https://sketch.com -->
    <title>AA5B08E4-217A-4B5F-AC6A-6E0F029F158E</title>
    <desc>Created with sketchtool.</desc>
    <g id="Visitor" stroke="none" stroke-width="1" fill="none" fill-rule="evenodd">
        <g id="3.1-visitor_whats-on_landing_desktop" transform="translate(-801.000000, -2515.000000)" fill="#C1A84C" fill-rule="nonzero">
            <g id="footer-elements" transform="translate(-1.000000, 2350.000000)">
                <g id="quick-link-ctas">
                    <g id="quick-link" transform="translate(735.000000, 101.000000)">
                        <g id="ic_safety" transform="translate(47.000000, 47.000000)">
                            <path d="M33,17 L34.1375,18.12 C37.875,21.8 41.125,22.92 44.8625,24.2 L44.8625,24.2 L46,24.52 L46,30.28 C46,38.28 41.125,45.48 33.65,48.68 L33.65,48.68 L33,49 L32.1875,48.84 C24.875,45.64 20,38.44 20,30.44 L20,30.44 L20,24.52 L21.1375,24.04 C24.875,22.92 28.125,21.8 31.8625,18.12 L31.8625,18.12 L33,17 Z M33,21.48 C29.5875,24.52 26.5,25.64 23.25,26.76 L23.25,26.76 L23.25,30.28 C23.25,36.84 26.9875,42.76 33,45.48 C39.0125,42.76 42.75,36.84 42.75,30.28 L42.75,30.28 L42.75,26.76 C39.5,25.8 36.4125,24.52 33,21.48 Z M37.225,28.2 L39.5,30.44 L31.375,38.44 L26.5,33.64 L28.775,31.4 L31.375,33.96 L37.225,28.2 Z"></path>
                        </g>
                    </g>
                </g>
            </g>
        </g>
    </g>
</svg>