<?xml version="1.0" encoding="UTF-8"?>
<svg width="20px" height="20px" viewBox="0 0 20 20" version="1.1" xmlns="http://www.w3.org/2000/svg" xmlns:xlink="http://www.w3.org/1999/xlink"><g id="-Menu" stroke="none" stroke-width="1" fill="none" fill-rule="evenodd"><g id="6-career-centre_menu_dropdown" transform="translate(-1147.000000, -105.000000)" fill="#A7A9AC" fill-rule="nonzero"><g id="top-nav_solid_dektop"><g id="ic_search_desktop_enabled" transform="translate(1147.000000, 105.000000)"><path d="M8.20312226,0 C12.7331331,0 16.4062445,3.66829454 16.4062445,8.19436827 C16.4062445,9.88589169 15.8932097,11.4576064 15.0141457,12.7628041 L20,17.743514 L17.7455968,20 L12.7538777,15.0132015 C11.4516494,15.882146 9.88655461,16.3887365 8.20312226,16.3887365 C3.67311143,16.3887365 0,12.720442 0,8.19436827 C0,3.66829454 3.67311143,0 8.20312226,0 Z M8.20312226,3.18959273 C5.43387507,3.18959273 3.18976875,5.43075616 3.18976875,8.19436827 C3.18976875,10.9579804 5.43387507,13.1991438 8.20312226,13.1991438 C10.9723695,13.1991438 13.2164758,10.9579804 13.2164758,8.19436827 C13.2164758,5.43075616 10.9723695,3.18959273 8.20312226,3.18959273 Z"></path></g></g></g></g></svg>