<?xml version="1.0" encoding="UTF-8"?>
<svg width="20px" height="20px" viewBox="0 0 20 20" version="1.1" xmlns="http://www.w3.org/2000/svg" xmlns:xlink="http://www.w3.org/1999/xlink">
    <!-- Generator: sketchtool 56.2 (101010) - https://sketch.com -->
    <title>C60026BD-D5B5-4991-8109-271521A84F20</title>
    <desc>Created with sketchtool.</desc>
    <g id="Home" stroke="none" stroke-width="1" fill="none" fill-rule="evenodd">
        <g id="6-home_desktop" transform="translate(-1252.000000, -105.000000)" fill="#D8D9DA" fill-rule="nonzero">
            <g id="top-nav_transparent_dektop-">
                <g id="ic_search_desktop_transp_enabled" transform="translate(1252.000000, 105.000000)">
                    <path d="M12.7537353,15.0132965 C11.4515353,15.8821829 9.88649327,16.3887365 8.20312226,16.3887365 C3.67311143,16.3887365 0,12.720442 0,8.19436827 C0,3.66829454 3.67311143,0 8.20312226,0 C12.7331331,0 16.4062445,3.66829454 16.4062445,8.19436827 C16.4062445,9.88589363 15.8932085,11.45761 15.0141427,12.7628085 L20,17.743514 L17.7455968,20 L12.7537353,15.0132965 Z M8.20312226,13.1991438 C10.9723695,13.1991438 13.2164758,10.9579804 13.2164758,8.19436827 C13.2164758,5.43075616 10.9723695,3.18959273 8.20312226,3.18959273 C5.43387507,3.18959273 3.18976875,5.43075616 3.18976875,8.19436827 C3.18976875,10.9579804 5.43387507,13.1991438 8.20312226,13.1991438 Z"></path>
                </g>
            </g>
        </g>
    </g>
</svg>