<?xml version="1.0" encoding="UTF-8"?>
<svg width="20px" height="20px" viewBox="0 0 20 20" version="1.1" xmlns="http://www.w3.org/2000/svg" xmlns:xlink="http://www.w3.org/1999/xlink">
    <!-- Generator: sketchtool 57.1 (101010) - https://sketch.com -->
    <title>BABC4691-371D-4191-A816-80F5883FBB34</title>
    <desc>Created with sketchtool.</desc>
    <g id="Organiser" stroke="none" stroke-width="1" fill="none" fill-rule="evenodd">
        <g id="2.1-organiser_event-type_landing_desktop" transform="translate(-295.000000, -2787.000000)" fill="#8E8A93" fill-rule="nonzero">
            <g id="Group-10-Copy" transform="translate(227.000000, 2606.000000)">
                <g id="Group-7" transform="translate(58.000000, 169.000000)">
                    <g id="Group-6">
                        <g id="Group-9">
                            <g id="ic_area" transform="translate(0.000000, 2.000000)">
                                <path d="M30,18 L30,30 L18,30 L18,28 L28,28 L28,18 L30,18 Z M17.3,21.3 L18.7,22.7 L13.4,28 L16,28 L16,30 L10,30 L10,24 L12,24 L12,26.6 L17.3,21.3 Z M22,10 L22,12 L12,12 L12,22 L10,22 L10,10 L22,10 Z M30,10 L30,16 L28,16 L28,13.4 L22.7,18.7 L21.3,17.3 L26.6,12 L24,12 L24,10 L30,10 Z"></path>
                            </g>
                        </g>
                    </g>
                </g>
            </g>
        </g>
    </g>
</svg>