<?xml version="1.0" encoding="UTF-8"?>
<svg width="33px" height="32px" viewBox="0 0 33 32" version="1.1" xmlns="http://www.w3.org/2000/svg" xmlns:xlink="http://www.w3.org/1999/xlink">
    <!-- Generator: sketchtool 57.1 (101010) - https://sketch.com -->
    <title>813FFBBF-7174-49DB-8D14-0CE29A3EC8A0</title>
    <desc>Created with sketchtool.</desc>
    <g id="Careers" stroke="none" stroke-width="1" fill="none" fill-rule="evenodd">
        <g id="7-careers_landing_desktop" transform="translate(-1426.000000, -4670.000000)" fill="#974771" fill-rule="nonzero">
            <g id="Group-2-Copy-2" transform="translate(0.000000, 4282.000000)">
                <g id="Group-21" transform="translate(225.000000, 332.000000)">
                    <g id="benefit" transform="translate(1147.438859, 0.000000)">
                        <g id="image_card_news">
                            <g id="image_news-1">
                                <g id="ic_training" transform="translate(37.948370, 39.000000)">
                                    <path d="M41.6,42.6 C45.12,42.6 48,45.48 48,49 L48,49 L44.8,49 C44.8,47.24 43.36,45.8 41.6,45.8 C39.84,45.8 38.4,47.24 38.4,49 L38.4,49 L35.2,49 C35.2,47.24 33.76,45.8 32,45.8 C30.24,45.8 28.8,47.24 28.8,49 L28.8,49 L25.6,49 C25.6,47.24 24.16,45.8 22.4,45.8 C20.64,45.8 19.2,47.24 19.2,49 L19.2,49 L16,49 C16,45.48 18.88,42.6 22.4,42.6 C24.32,42.6 26.08,43.4 27.2,44.84 C28.32,43.4 30.08,42.6 32,42.6 C33.92,42.6 35.68,43.56 36.8,44.84 C37.92,43.4 39.68,42.6 41.6,42.6 Z M46.4,17 C47.36,17 48,17.64 48,18.6 L48,18.6 L48,37.8 C48,38.76 47.36,39.4 46.4,39.4 L46.4,39.4 L46.08,39.4 C45.44,41.32 43.68,42.6 41.6,42.6 C39.52,42.6 37.76,41.32 37.12,39.4 L37.12,39.4 L36.48,39.4 C35.84,41.32 34.08,42.6 32,42.6 C29.92,42.6 28.16,41.32 27.52,39.4 L27.52,39.4 L26.88,39.4 C26.24,41.32 24.48,42.6 22.4,42.6 C20.32,42.6 18.56,41.32 17.92,39.4 L17.92,39.4 L17.6,39.4 C16.64,39.4 16,38.76 16,37.8 L16,37.8 L16,18.6 C16,17.64 16.64,17 17.6,17 L17.6,17 Z M22.4,36.2 C21.44,36.2 20.8,36.84 20.8,37.8 C20.8,38.76 21.44,39.4 22.4,39.4 C23.36,39.4 24,38.76 24,37.8 C24,36.84 23.36,36.2 22.4,36.2 Z M32,36.2 C31.04,36.2 30.4,36.84 30.4,37.8 C30.4,38.76 31.04,39.4 32,39.4 C32.96,39.4 33.6,38.76 33.6,37.8 C33.6,36.84 32.96,36.2 32,36.2 Z M41.6,36.2 C40.64,36.2 40,36.84 40,37.8 C40,38.76 40.64,39.4 41.6,39.4 C42.56,39.4 43.2,38.76 43.2,37.8 C43.2,36.84 42.56,36.2 41.6,36.2 Z M44.8,20.2 L19.2,20.2 L19.2,34.28 C20,33.48 21.12,33 22.4,33 C24.48,33 26.24,34.28 26.88,36.2 L26.88,36.2 L27.52,36.2 C28.16,34.28 29.92,33 32,33 C34.08,33 35.84,34.28 36.48,36.2 L36.48,36.2 L37.12,36.2 C37.76,34.28 39.52,33 41.6,33 C42.88,33 44,33.48 44.8,34.28 L44.8,34.28 L44.8,20.2 Z"></path>
                                </g>
                            </g>
                        </g>
                    </g>
                </g>
            </g>
        </g>
    </g>
</svg>