<?xml version="1.0" encoding="UTF-8"?>
<svg width="66px" height="65px" viewBox="0 0 66 65" version="1.1" xmlns="http://www.w3.org/2000/svg" xmlns:xlink="http://www.w3.org/1999/xlink">
    <!-- Generator: sketchtool 57.1 (101010) - https://sketch.com -->
    <title>E2EC4580-4BE3-4ACD-AF3D-ED40DEE0F312</title>
    <desc>Created with sketchtool.</desc>
    <g id="Careers" stroke="none" stroke-width="1" fill="none" fill-rule="evenodd">
        <g id="7-careers_landing_desktop" transform="translate(-1027.000000, -4298.000000)" fill="#974771">
            <g id="Group-2-Copy-2" transform="translate(0.000000, 3927.000000)">
                <g id="Group-21" transform="translate(225.000000, 332.000000)">
                    <g id="benefit" transform="translate(764.959239, 0.000000)">
                        <g id="image_card_news">
                            <g id="image_news-1">
                                <g id="ic_benefit_parking" transform="translate(37.948370, 39.000000)">
                                    <path d="M32.4558424,65 C50.3807092,65 64.9116848,50.4492544 64.9116848,32.5 C64.9116848,14.5507456 50.3807092,0 32.4558424,0 C14.5309756,0 0,14.5507456 0,32.5 C0,50.4492544 14.5309756,65 32.4558424,65 Z" id="Oval" fill-opacity="0.1"></path>
                                    <path d="M50.0923913,30.8682171 L44.1423913,28.9922481 L38.7173913,22 L19.2923913,22 L15.0923913,30.0155039 L15.0923913,40.5891473 L18.9423913,40.5891473 C19.6423913,42.6356589 21.5673913,44 23.8423913,44 C26.1173913,44 28.0423913,42.6356589 28.7423913,40.5891473 L36.4423913,40.5891473 C37.1423913,42.6356589 39.0673913,44 41.3423913,44 C43.6173913,44 45.5423913,42.6356589 46.2423913,40.5891473 L50.0923913,40.5891473 L50.0923913,30.8682171 Z M39.5923913,28.6511628 L32.5923913,28.6511628 L32.5923913,25.2403101 L36.9673913,25.2403101 L39.5923913,28.6511628 Z M29.0923913,25.2403101 L29.0923913,28.6511628 L19.6423913,28.6511628 L21.3923913,25.2403101 L29.0923913,25.2403101 Z M23.8423913,40.5891473 C22.7923913,40.5891473 22.0923913,39.9069767 22.0923913,38.8837209 C22.0923913,37.8604651 22.7923913,37.1782946 23.8423913,37.1782946 C24.8923913,37.1782946 25.5923913,37.8604651 25.5923913,38.8837209 C25.5923913,39.9069767 24.8923913,40.5891473 23.8423913,40.5891473 Z M41.3423913,40.5891473 C40.2923913,40.5891473 39.5923913,39.9069767 39.5923913,38.8837209 C39.5923913,37.8604651 40.2923913,37.1782946 41.3423913,37.1782946 C42.3923913,37.1782946 43.0923913,37.8604651 43.0923913,38.8837209 C43.0923913,39.9069767 42.3923913,40.5891473 41.3423913,40.5891473 Z M46.5923913,37.1782946 L46.2423913,37.1782946 C45.5423913,35.1317829 43.6173913,33.7674419 41.3423913,33.7674419 C39.0673913,33.7674419 37.1423913,35.1317829 36.4423913,37.1782946 L28.7423913,37.1782946 C28.0423913,35.1317829 26.1173913,33.7674419 23.8423913,33.7674419 C21.5673913,33.7674419 19.6423913,35.1317829 18.9423913,37.1782946 L18.5923913,37.1782946 L18.5923913,32.0620155 L42.9173913,32.0620155 L46.5923913,33.255814 L46.5923913,37.1782946 Z" id="ic)parking" fill-rule="nonzero"></path>
                                </g>
                            </g>
                        </g>
                    </g>
                </g>
            </g>
        </g>
    </g>
</svg>