<?xml version="1.0" encoding="UTF-8"?>
<svg width="65px" height="65px" viewBox="0 0 65 65" version="1.1" xmlns="http://www.w3.org/2000/svg" xmlns:xlink="http://www.w3.org/1999/xlink">
    <!-- Generator: sketchtool 57.1 (101010) - https://sketch.com -->
    <title>EA6F5233-54EB-4FAD-A934-197270DD1B18</title>
    <desc>Created with sketchtool.</desc>
    <g id="Exhibitor" stroke="none" stroke-width="1" fill="none" fill-rule="evenodd">
        <g id="4-exhibitor_landing_desktop" transform="translate(-865.000000, -1381.000000)" fill="#9C74A9">
            <g id="Group-6" transform="translate(223.000000, 1331.000000)">
                <g id="Group-5" transform="translate(602.000000, 0.000000)">
                    <g id="image_card_news">
                        <g id="image_news-1">
                            <g id="ic_beverages" transform="translate(40.000000, 50.000000)">
                                <circle id="Oval" fill-opacity="0.1" cx="32.5" cy="32.5" r="32.5"></circle>
                                <path d="M28.85,17 C29.78,17 30.4,17.62 30.4,18.55 L30.4,18.55 L30.4,23.51 C30.4,25.06 30.865,26.455 31.64,27.695 C32.88,29.555 33.5,31.57 33.5,33.74 L33.5,33.74 L33.5,46.45 C33.5,47.38 32.88,48 31.95,48 L31.95,48 L19.55,48 C18.62,48 18,47.38 18,46.45 L18,46.45 L18,33.74 C18,31.57 18.62,29.555 19.86,27.695 C20.635,26.455 21.1,25.06 21.1,23.51 L21.1,23.51 L21.1,18.55 C21.1,17.62 21.72,17 22.65,17 L22.65,17 Z M47.45,23.2 C48.38,23.2 49,23.82 49,24.75 C49,31.725 46.365,37.15 42.8,38.39 L42.8,38.39 L42.8,44.9 L45.9,44.9 L45.9,48 L36.6,48 L36.6,44.9 L39.7,44.9 L39.7,38.39 C36.135,37.15 33.5,31.725 33.5,24.75 C33.5,23.82 34.12,23.2 35.05,23.2 L35.05,23.2 Z M30.4,41.8 L21.1,41.8 L21.1,44.9 L30.4,44.9 L30.4,41.8 Z M30.4,35.6 L21.1,35.6 L21.1,38.7 L30.4,38.7 L30.4,35.6 Z M45.9,26.3 L36.6,26.3 C37.065,31.725 39.235,35.6 41.25,35.6 C43.265,35.6 45.59,31.725 45.9,26.3 L45.9,26.3 Z M27.3,20.1 L24.2,20.1 L24.2,23.51 C24.2,25.68 23.58,27.695 22.34,29.555 C21.72,30.33 21.41,31.415 21.255,32.5 L21.255,32.5 L30.245,32.5 C30.09,31.415 29.78,30.33 29.16,29.555 C27.92,27.695 27.3,25.68 27.3,23.51 L27.3,23.51 L27.3,20.1 Z" id="Combined-Shape"></path>
                            </g>
                        </g>
                    </g>
                </g>
            </g>
        </g>
    </g>
</svg>