<?xml version="1.0" encoding="UTF-8"?>
<svg width="65px" height="65px" viewBox="0 0 65 65" version="1.1" xmlns="http://www.w3.org/2000/svg" xmlns:xlink="http://www.w3.org/1999/xlink">
    <!-- Generator: sketchtool 57.1 (101010) - https://sketch.com -->
    <title>300F833F-6A1C-4C8F-A0D5-BC8E2EA1DBE5</title>
    <desc>Created with sketchtool.</desc>
    <g id="Exhibitor" stroke="none" stroke-width="1" fill="none" fill-rule="evenodd">
        <g id="4-exhibitor_landing_desktop" transform="translate(-262.000000, -1381.000000)" fill="#9C74A9">
            <g id="Group-6" transform="translate(223.000000, 1331.000000)">
                <g id="Group-5">
                    <g id="image_card_news">
                        <g id="image_news-1">
                            <g id="ic_elect" transform="translate(39.000000, 50.000000)">
                                <circle id="Oval" fill-opacity="0.1" cx="32.5" cy="32.5" r="32.5"></circle>
                                <path d="M21.5625,29.3999974 C21.5778261,32.088715 23.3384026,34.4611891 25.921875,35.2744962 L25.921875,38.5294955 C25.9175604,43.7556269 30.1848463,47.9957132 35.453125,48 C40.7214037,48.0042736 44.9956852,43.7711269 45,38.5449955 L45,17 L41.875,17 L41.875,38.5449955 C41.875,42.0590446 39.0033264,44.9077442 35.4609375,44.9077442 C31.9185486,44.9077442 29.046875,42.0590446 29.046875,38.5449955 L29.046875,35.4449961 C31.9520273,34.8644255 34.0467764,32.3397639 34.0625,29.3999974 L34.0625,26.2999981 L35.625,26.2999981 L35.625,23.1999987 L32.5,23.1999987 L32.5,17 L29.375,17 L29.375,23.1999987 L26.25,23.1999987 L26.25,17 L23.125,17 L23.125,23.1999987 L20,23.1999987 L20,26.2999981 L21.5625,26.2999981 L21.5625,29.3999974 Z M30.9375,29.3999974 C30.9375,31.1120798 29.5383898,32.4999968 27.8125,32.4999968 C26.0866102,32.4999968 24.6875,31.1120798 24.6875,29.3999974 L24.6875,26.2999981 L30.9375,26.2999981 L30.9375,29.3999974 Z" id="Shape"></path>
                            </g>
                        </g>
                    </g>
                </g>
            </g>
        </g>
    </g>
</svg>