<?xml version="1.0" encoding="UTF-8"?>
<svg width="20px" height="20px" viewBox="0 0 20 20" version="1.1" xmlns="http://www.w3.org/2000/svg" xmlns:xlink="http://www.w3.org/1999/xlink">
    <!-- Generator: sketchtool 57.1 (101010) - https://sketch.com -->
    <title>4D122F48-564B-4F36-AD28-5629F8E65A41</title>
    <desc>Created with sketchtool.</desc>
    <g id="Organiser" stroke="none" stroke-width="1" fill="none" fill-rule="evenodd">
        <g id="2.1-organiser_event-type_landing_desktop" transform="translate(-699.000000, -2861.000000)" fill="#8E8A93" fill-rule="nonzero">
            <g id="Group-10-Copy" transform="translate(227.000000, 2606.000000)">
                <g id="Group-7" transform="translate(58.000000, 169.000000)">
                    <g id="Group-6-Copy-3" transform="translate(404.000000, 74.000000)">
                        <g id="Group-9">
                            <g id="ic_length" transform="translate(0.000000, 2.000000)">
                                <path d="M24.6324444,10 L10,24.6324444 L15.412,30.0444444 L30.0444444,15.412 L24.6324444,10 Z M12.8062222,24.6324444 L14.1091111,23.3295556 L15.412,24.6324444 L16.8151111,23.2293333 L15.5122222,21.9264444 L16.8151111,20.6235556 L18.118,21.9264444 L19.5211111,20.5233333 L18.3184444,19.2204444 L19.6213333,17.9175556 L20.9242222,19.2204444 L22.3273333,17.8173333 L21.0244444,16.5144444 L22.0266667,15.5122222 L23.3295556,16.8151111 L24.7326667,15.412 L23.4297778,14.0088889 L24.6324444,12.8062222 L27.2382222,15.412 L15.412,27.2382222 L12.8062222,24.6324444 Z"></path>
                            </g>
                        </g>
                    </g>
                </g>
            </g>
        </g>
    </g>
</svg>