<?xml version="1.0" encoding="UTF-8"?>
<svg width="65px" height="65px" viewBox="0 0 65 65" version="1.1" xmlns="http://www.w3.org/2000/svg" xmlns:xlink="http://www.w3.org/1999/xlink">
    <!-- Generator: sketchtool 57.1 (101010) - https://sketch.com -->
    <title>FA72C468-823A-4B6B-A591-E61B773282A1</title>
    <desc>Created with sketchtool.</desc>
    <g id="Supplier" stroke="none" stroke-width="1" fill="none" fill-rule="evenodd">
        <g id="5-supplier_landing_desktop" transform="translate(-276.000000, -4523.000000)" fill="#7899AA">
            <g id="Group-2" transform="translate(0.000000, 4373.000000)">
                <g id="quick-link-ctas" transform="translate(226.000000, 99.000000)">
                    <g id="quick-link">
                        <g id="ic_ct" transform="translate(50.000000, 51.000000)">
                            <circle id="Oval" opacity="0.1" cx="32.5" cy="32.5" r="32.5"></circle>
                            <path d="M41.2,20 L41.2,25.7777778 L47,25.7777778 L47,41.6666667 C47,44.05 45.2242517,45.8890427 42.8659616,45.9951599 L42.65,46 L22.35,46 C19.9575,46 18.1113841,44.2310554 18.0048587,41.8818008 L18,41.6666667 L18,20 L41.2,20 Z M38.3,22.8888889 L20.9,22.8888889 L20.9,41.6666667 C20.9,42.4823529 21.4137716,43.0421376 22.19954,43.1051722 L22.35,43.1111111 L38.59,43.1111111 C38.4657143,42.7396825 38.3414286,42.368254 38.3084548,41.9058633 L38.3,41.6666667 L38.3,22.8888889 Z M44.1,28.6666667 L41.2,28.6666667 L41.2,41.6666667 C41.2,42.5333333 41.78,43.1111111 42.65,43.1111111 C43.4688235,43.1111111 44.0307612,42.599308 44.0940383,41.8165502 L44.1,41.6666667 L44.1,28.6666667 Z M35.4,37.3333333 L35.4,40.2222222 L23.8,40.2222222 L23.8,37.3333333 L35.4,37.3333333 Z M32.5,25.7777778 L32.5,34.4444444 L23.8,34.4444444 L23.8,25.7777778 L32.5,25.7777778 Z M29.6,28.6666667 L26.7,28.6666667 L26.7,31.5555556 L29.6,31.5555556 L29.6,28.6666667 Z" id="ic_reporting-policies"></path>
                        </g>
                    </g>
                </g>
            </g>
        </g>
    </g>
</svg>