<?xml version="1.0" encoding="UTF-8"?>
<svg width="65px" height="65px" viewBox="0 0 65 65" version="1.1" xmlns="http://www.w3.org/2000/svg" xmlns:xlink="http://www.w3.org/1999/xlink">
    <!-- Generator: sketchtool 57.1 (101010) - https://sketch.com -->
    <title>FFB1242D-4A33-41C1-95FA-3562CA0D3C6F</title>
    <desc>Created with sketchtool.</desc>
    <g id="Supplier" stroke="none" stroke-width="1" fill="none" fill-rule="evenodd">
        <g id="5-supplier_policies-reporting-landing_desktop" transform="translate(-1041.000000, -2243.000000)" fill="#7899AA">
            <g id="Group-2" transform="translate(225.000000, 2194.000000)">
                <g id="quick-link-copy" transform="translate(764.000000, 0.000000)">
                    <g id="ic_supply-chain" transform="translate(52.000000, 49.000000)">
                        <circle id="Oval" fill-opacity="0.1" cx="32.5" cy="32.5" r="32.5"></circle>
                        <path d="M35.6160602,29.25 L37.8745295,31.65 C39.6813049,33.3 39.6813049,36.15 37.8745295,37.95 L37.8745295,37.95 L29.1417817,46.65 C28.238394,47.55 27.1844417,48 25.9799247,48 C24.7754078,48 23.5708908,47.55 22.6675031,46.65 L22.6675031,46.65 L19.3550816,43.35 C18.4516939,42.6 18,41.4 18,40.2 C18,39 18.4516939,37.95 19.3550816,37.05 L19.3550816,37.05 L23.4203262,33 L25.5282309,35.1 L21.6135508,39.15 C21.3124216,39.45 21.161857,39.75 21.161857,40.2 C21.161857,40.65 21.3124216,40.95 21.6135508,41.25 L21.6135508,41.25 L24.9259724,44.55 C25.5282309,45.15 26.4316186,45.15 27.033877,44.55 L27.033877,44.55 L35.7666248,35.7 C36.3688833,35.1 36.3688833,34.2 35.7666248,33.6 L35.7666248,33.6 L33.5081556,31.35 L35.6160602,29.25 Z M37.1217064,19.35 C38.7779172,17.55 41.6386449,17.55 43.4454203,19.35 L43.4454203,19.35 L46.7578419,22.65 C48.4140527,24.3 48.4140527,27.3 46.7578419,28.95 L46.7578419,28.95 L42.6925972,33 L40.5846926,30.9 L44.4993726,26.85 C45.1016311,26.25 45.1016311,25.35 44.4993726,24.75 L44.4993726,24.75 L41.1869511,21.45 C40.5846926,20.85 39.6813049,20.85 39.0790464,21.45 L39.0790464,21.45 L30.3462986,30.15 C30.0451694,30.45 29.8946048,30.75 29.8946048,31.2 C29.8946048,31.65 30.0451694,31.95 30.3462986,32.25 L30.3462986,32.25 L32.6047679,34.5 L30.4968632,36.6 L28.238394,34.35 C27.3350063,33.6 26.8833124,32.4 26.8833124,31.2 C26.8833124,30 27.3350063,28.95 28.238394,28.05 L28.238394,28.05 Z" fill-rule="nonzero"></path>
                    </g>
                </g>
            </g>
        </g>
    </g>
</svg>