<?xml version="1.0" encoding="UTF-8"?>
<svg width="66px" height="65px" viewBox="0 0 66 65" version="1.1" xmlns="http://www.w3.org/2000/svg" xmlns:xlink="http://www.w3.org/1999/xlink">
    <!-- Generator: sketchtool 57.1 (101010) - https://sketch.com -->
    <title>2FDE7538-EFD5-4609-8485-0D6D600B0224</title>
    <desc>Created with sketchtool.</desc>
    <g id="Careers" stroke="none" stroke-width="1" fill="none" fill-rule="evenodd">
        <g id="7-careers_landing_desktop" transform="translate(-263.000000, -4298.000000)" fill="#974771">
            <g id="Group-2-Copy-2" transform="translate(0.000000, 3927.000000)">
                <g id="Group-21" transform="translate(225.000000, 332.000000)">
                    <g id="benefit">
                        <g id="image_card_news">
                            <g id="image_news-1">
                                <g id="ic_benefit_uniform" transform="translate(38.947011, 39.000000)">
                                    <path d="M32.4558424,65 C50.3807092,65 64.9116848,50.4492544 64.9116848,32.5 C64.9116848,14.5507456 50.3807092,0 32.4558424,0 C14.5309756,0 0,14.5507456 0,32.5 C0,50.4492544 14.5309756,65 32.4558424,65 Z" id="Oval" fill-opacity="0.1"></path>
                                    <path d="M35.8888889,29.105 L36.8222222,29.26 C38.2222222,29.57 39.6222222,29.88 40.8666667,30.345 C43.9777778,31.43 46,34.375 46,37.63 L46,37.63 L46,46 L18,46 L18,37.63 C18,34.375 20.0222222,31.43 23.1333333,30.345 C24.3777778,29.88 25.7777778,29.57 27.1777778,29.26 L27.1777778,29.26 L28.1111111,29.105 L32,34.53 L35.8888889,29.105 Z M37.2888889,32.515 L32,39.8 L26.8666667,32.515 C25.9333333,32.825 25,32.98 24.2222222,33.29 C22.3555556,33.91 21.1111111,35.615 21.1111111,37.63 L21.1111111,37.63 L21.1111111,42.9 L43.0444444,42.9 L43.0444444,37.63 C43.0444444,35.615 41.8,33.91 39.9333333,33.29 C39,32.98 38.2222222,32.67 37.2888889,32.515 L37.2888889,32.515 Z M32,15 C35.4222222,15 38.2222222,17.79 38.2222222,21.2 C38.2222222,24.61 35.4222222,27.4 32,27.4 C28.5777778,27.4 25.7777778,24.61 25.7777778,21.2 C25.7777778,17.79 28.5777778,15 32,15 Z M32,18.1 C30.2888889,18.1 28.8888889,19.495 28.8888889,21.2 C28.8888889,22.905 30.2888889,24.3 32,24.3 C33.7111111,24.3 35.1111111,22.905 35.1111111,21.2 C35.1111111,19.495 33.7111111,18.1 32,18.1 Z" id="ic_uniform" fill-rule="nonzero"></path>
                                </g>
                            </g>
                        </g>
                    </g>
                </g>
            </g>
        </g>
    </g>
</svg>