<?xml version="1.0" encoding="UTF-8"?>
<svg width="65px" height="65px" viewBox="0 0 65 65" version="1.1" xmlns="http://www.w3.org/2000/svg" xmlns:xlink="http://www.w3.org/1999/xlink">
    <!-- Generator: sketchtool 57.1 (101010) - https://sketch.com -->
    <title>9271CDA3-4643-4A15-88D2-131CF10E8B38</title>
    <desc>Created with sketchtool.</desc>
    <g id="Sustainability" stroke="none" stroke-width="1" fill="none" fill-rule="evenodd">
        <g id="6-sustainability_landing_desktop" transform="translate(-276.000000, -1374.000000)">
            <g id="Group-2" transform="translate(0.000000, 1087.000000)">
                <g id="quick-link-ctas" transform="translate(0.000000, 237.000000)">
                    <g id="Group-8" transform="translate(225.000000, 0.000000)">
                        <g id="quick-link">
                            <g id="ic_water" transform="translate(51.000000, 50.000000)">
                                <circle fill-opacity="0.1" fill="#44B549" cx="32.5" cy="32.5" r="32.5"></circle>
                                <path d="M32.0002606,14 L21.5941628,27.2350769 C19.8972077,29.487442 19,32.1701508 19,34.9929352 C19,42.4568939 24.8192114,48 32,48 C39.1682803,48 45,42.1650695 45,34.9929352 C45,32.1701508 44.1030529,29.487442 42.4058372,27.2350769 L32.0002606,14 Z M32.0002606,46.0091095 C25.83186,46.0091095 21.0000201,41.1702728 21.0000201,34.9929352 C21.0000201,32.6074982 21.7567703,30.3408661 23.1884459,28.4373932 L32.0002606,17.2303009 L40.8118147,28.4373932 C42.2434903,30.3408661 43.0002405,32.6074982 43.0002405,34.9929352 C43.0002405,41.0672912 38.0654679,46.0091095 32.0002606,46.0091095 Z" id="Shape" stroke="#60A364" stroke-width="1.2" fill="#60A364" fill-rule="nonzero"></path>
                            </g>
                        </g>
                    </g>
                </g>
            </g>
        </g>
    </g>
</svg>