<?xml version="1.0" encoding="UTF-8"?>
<svg width="66px" height="65px" viewBox="0 0 66 65" version="1.1" xmlns="http://www.w3.org/2000/svg" xmlns:xlink="http://www.w3.org/1999/xlink">
    <!-- Generator: sketchtool 57.1 (101010) - https://sketch.com -->
    <title>E626D4C0-2B29-40C4-A6CD-1554A41C9A17</title>
    <desc>Created with sketchtool.</desc>
    <g id="Careers" stroke="none" stroke-width="1" fill="none" fill-rule="evenodd">
        <g id="7-careers_landing_desktop" transform="translate(-645.000000, -4298.000000)" fill="#974771">
            <g id="Group-2-Copy-2" transform="translate(0.000000, 3927.000000)">
                <g id="Group-21" transform="translate(225.000000, 332.000000)">
                    <g id="benefit" transform="translate(382.479620, 0.000000)">
                        <g id="image_card_news">
                            <g id="image_news-1">
                                <g id="ic_benefit_food" transform="translate(37.948370, 39.000000)">
                                    <path d="M32.4558424,65 C50.3807092,65 64.9116848,50.4492544 64.9116848,32.5 C64.9116848,14.5507456 50.3807092,0 32.4558424,0 C14.5309756,0 0,14.5507456 0,32.5 C0,50.4492544 14.5309756,65 32.4558424,65 Z" id="Oval" fill-opacity="0.1"></path>
                                    <path d="M49,32.4437086 L49,34.0949227 C49,39.1280353 46.2177161,43.5783664 41.9826574,46.2803532 C42.2291889,46.5629139 42.3964781,46.9337748 42.3964781,47.3487859 C42.3964781,48.2104101 41.7405893,48.9214593 40.8929662,48.9939198 L40.75,49 L24.25,49 C23.3431163,49 22.6035219,48.2671082 22.6035219,47.3487859 C22.6035219,46.9337748 22.7708111,46.5717439 23.0173426,46.2803532 C18.8807736,43.649828 16.1301943,39.3429071 16.0044975,34.462168 L16,34.1125828 L16,32.4613687 L17.6464781,32.4437086 L49,32.4437086 Z M45.5661686,35.7461369 L19.4250267,35.7461369 C20.340715,41.3620309 25.8524546,45.6975717 32.5,45.6975717 C39.1475454,45.6975717 44.659285,41.3620309 45.5661686,35.7461369 Z M25.8964781,20.3112583 L25.8964781,28.584989 L22.5947172,28.584989 L22.5947172,20.3112583 L25.8964781,20.3112583 Z M42.4052828,20.3112583 L42.4052828,28.584989 L39.1035219,28.584989 L39.1035219,20.3112583 L42.4052828,20.3112583 Z M34.1552828,17 L34.1552828,25.2737307 L30.8535219,25.2737307 L30.8535219,17 L34.1552828,17 Z" id="ic_meal"></path>
                                </g>
                            </g>
                        </g>
                    </g>
                </g>
            </g>
        </g>
    </g>
</svg>