<?xml version="1.0" encoding="UTF-8"?>
<svg width="65px" height="65px" viewBox="0 0 65 65" version="1.1" xmlns="http://www.w3.org/2000/svg" xmlns:xlink="http://www.w3.org/1999/xlink">
    <!-- Generator: sketchtool 57.1 (101010) - https://sketch.com -->
    <title>03D269D1-E326-4D92-9164-B414463540B9</title>
    <desc>Created with sketchtool.</desc>
    <g id="Supplier" stroke="none" stroke-width="1" fill="none" fill-rule="evenodd">
        <g id="5-supplier_landing_desktop" transform="translate(-1039.000000, -4523.000000)" fill="#7899AA">
            <g id="Group-2" transform="translate(0.000000, 4373.000000)">
                <g id="quick-link-ctas" transform="translate(226.000000, 99.000000)">
                    <g id="quick-link" transform="translate(763.000000, 1.000000)">
                        <g id="ic_banquetsgalas" transform="translate(50.000000, 50.000000)">
                            <circle id="Oval" opacity="0.1" cx="32.5" cy="32.5" r="32.5"></circle>
                            <path d="M50,29.4 L43.03,29.4 C42.01,23.5066667 36.4,19 29.6,19 C22.12,19 16,24.3733333 16,31.1333333 L16,41.5333333 L19.74,41.5333333 C20.42,43.6133333 22.29,45 24.5,45 C26.71,45 28.58,43.6133333 29.26,41.5333333 L36.74,41.5333333 C37.42,43.6133333 39.29,45 41.5,45 C43.71,45 45.58,43.6133333 46.26,41.5333333 L50,41.5333333 L50,29.4 Z M39.63,29.4 L31.3,29.4 L31.3,22.64 C35.38,23.16 38.78,25.9333333 39.63,29.4 Z M27.9,22.64 L27.9,29.4 L19.57,29.4 C20.42,25.9333333 23.82,23.16 27.9,22.64 Z M24.5,41.5333333 C23.48,41.5333333 22.8,40.84 22.8,39.8 C22.8,38.76 23.48,38.0666667 24.5,38.0666667 C25.52,38.0666667 26.2,38.76 26.2,39.8 C26.2,40.84 25.52,41.5333333 24.5,41.5333333 Z M41.5,41.5333333 C40.48,41.5333333 39.8,40.84 39.8,39.8 C39.8,38.76 40.48,38.0666667 41.5,38.0666667 C42.52,38.0666667 43.2,38.76 43.2,39.8 C43.2,40.84 42.52,41.5333333 41.5,41.5333333 Z M46.6,38.0666667 L46.26,38.0666667 C45.58,35.9866667 43.71,34.6 41.5,34.6 C39.29,34.6 37.42,35.9866667 36.74,38.0666667 L29.26,38.0666667 C28.58,35.9866667 26.71,34.6 24.5,34.6 C22.29,34.6 20.42,35.9866667 19.74,38.0666667 L19.4,38.0666667 L19.4,32.8666667 L46.6,32.8666667 L46.6,38.0666667 Z" id="ic_parking"></path>
                        </g>
                    </g>
                </g>
            </g>
        </g>
    </g>
</svg>