<?xml version="1.0" encoding="UTF-8"?>
<svg width="65px" height="65px" viewBox="0 0 65 65" version="1.1" xmlns="http://www.w3.org/2000/svg" xmlns:xlink="http://www.w3.org/1999/xlink">
    <!-- Generator: sketchtool 57.1 (101010) - https://sketch.com -->
    <title>100C204B-2FE5-4421-9728-483407EC54B3</title>
    <desc>Created with sketchtool.</desc>
    <g id="Exhibitor" stroke="none" stroke-width="1" fill="none" fill-rule="evenodd">
        <g id="4-exhibitor_landing_desktop" transform="translate(-563.000000, -1381.000000)" fill="#9C74A9">
            <g id="Group-6" transform="translate(223.000000, 1331.000000)">
                <g id="Group-5" transform="translate(301.000000, 0.000000)">
                    <g id="image_card_news">
                        <g id="image_news-1">
                            <g id="ic_foodcatering" transform="translate(39.000000, 50.000000)">
                                <circle id="Oval" fill-opacity="0.1" cx="32.5" cy="32.5" r="32.5"></circle>
                                <path d="M25.3636364,18 C28.8781757,18 31.7272727,20.8914943 31.7272727,24.4583333 L31.7272727,24.4583333 L31.7272727,28.3333333 C31.7192845,30.3570449 30.7770737,32.2599462 29.1818182,33.4741667 L29.1818182,33.4741667 L29.1818182,45.125 C29.1818182,47.2651034 27.47236,49 25.3636364,49 C23.2549128,49 21.5454545,47.2651034 21.5454545,45.125 L21.5454545,45.125 L21.5454545,33.4741667 C19.950199,32.2599462 19.0079882,30.3570449 19,28.3333333 L19,28.3333333 L19,24.4583333 C19,20.8914943 21.849097,18 25.3636364,18 Z M45.7272727,18 C46.4301806,18 47,18.5782989 47,19.2916667 L47,19.2916667 L47,29.625 C46.9995001,31.2667196 45.9796782,32.7299477 44.4545455,33.2771875 L44.4545455,33.2771875 L44.4545455,45.125 C44.4545455,47.2651034 42.7450872,49 40.6363636,49 C38.52764,49 36.8181818,47.2651034 36.8181818,45.125 L36.8181818,45.125 L36.8181818,33.2771875 C35.2930491,32.7299477 34.2732272,31.2667196 34.2727273,29.625 L34.2727273,29.625 L34.2727273,19.2916667 C34.2727273,18.5782989 34.8425467,18 35.5454545,18 C36.2483624,18 36.8181818,18.5782989 36.8181818,19.2916667 L36.8181818,19.2916667 L36.8181818,25.75 L39.3636364,25.75 L39.3636364,19.2916667 C39.3636364,18.5782989 39.9334558,18 40.6363636,18 C41.3392715,18 41.9090909,18.5782989 41.9090909,19.2916667 L41.9090909,19.2916667 L41.9090909,25.75 L44.4545455,25.75 L44.4545455,19.2916667 C44.4545455,18.5782989 45.0243649,18 45.7272727,18 Z M25.3636364,20.5833333 C23.2549128,20.5833333 21.5454544,22.3182299 21.5454544,24.4583333 L21.5454544,24.4583333 L21.5454544,28.3333333 C21.5451086,29.7117358 22.2740545,30.9841802 23.4545455,31.6658333 C23.8479251,31.8963306 24.0904432,32.3221302 24.0909091,32.783125 L24.0909091,32.783125 L24.0909091,45.125 C24.0909091,45.8383678 24.6607285,46.4166667 25.3636364,46.4166667 C26.0665442,46.4166667 26.6363636,45.8383678 26.6363636,45.125 L26.6363636,45.125 L26.6363636,32.783125 C26.6368295,32.3221302 26.8793476,31.8963306 27.2727273,31.6658333 C28.4532183,30.9841802 29.1821641,29.7117358 29.1818183,28.3333333 L29.1818183,28.3333333 L29.1818183,24.4583333 C29.1818183,22.3182299 27.47236,20.5833333 25.3636364,20.5833333 Z M44.4545455,28.3333333 L36.8181818,28.3333333 L36.8181818,29.625 C36.8181818,30.3383678 37.3880012,30.9166667 38.0909091,30.9166667 C38.793817,30.9166667 39.3636364,31.4949655 39.3636364,32.2083333 L39.3636364,32.2083333 L39.3636364,45.125 C39.3636364,45.8383678 39.9334558,46.4166667 40.6363636,46.4166667 C41.3392715,46.4166667 41.9090909,45.8383678 41.9090909,45.125 L41.9090909,45.125 L41.9090909,32.2083333 C41.9090909,31.4949655 42.4789103,30.9166667 43.1818182,30.9166667 L43.3119472,30.9099979 C43.9537276,30.8438517 44.4545455,30.2937823 44.4545455,29.625 L44.4545455,29.625 L44.4545455,28.3333333 Z" id="Combined-Shape"></path>
                            </g>
                        </g>
                    </g>
                </g>
            </g>
        </g>
    </g>
</svg>