<?xml version="1.0" encoding="UTF-8"?>
<svg width="65px" height="65px" viewBox="0 0 65 65" version="1.1" xmlns="http://www.w3.org/2000/svg" xmlns:xlink="http://www.w3.org/1999/xlink">
    <!-- Generator: sketchtool 57.1 (101010) - https://sketch.com -->
    <title>BB258C91-6941-4BE8-9A67-97EB054B87DE</title>
    <desc>Created with sketchtool.</desc>
    <g id="Exhibitor" stroke="none" stroke-width="1" fill="none" fill-rule="evenodd">
        <g id="4.1.1-exhibitor_landing_more" transform="translate(-273.000000, -1263.000000)" fill="#9C74A9">
            <g id="quick-link" transform="translate(225.000000, 1215.000000)">
                <g id="ic_it" transform="translate(48.000000, 48.000000)">
                    <circle id="Oval" fill-opacity="0.1" cx="32.5" cy="32.5" r="32.5"></circle>
                    <path d="M34.1342021,25.1954735 L34.2986198,25.35 L40.6223338,31.65 C42.3726474,33.2484375 42.4273447,35.9730469 40.7864257,37.7782425 L40.6223338,37.95 L33.2446675,45.3 C31.5884567,47.1 29.3299875,48 26.9209536,48 C24.5119197,48 22.2534504,47.1 20.5972396,45.45 C17.2021551,41.9205882 17.1355849,36.372722 20.3975288,32.9055035 L20.5972396,32.7 L27.9749059,25.35 C29.5776905,23.7532258 32.4495422,23.701717 34.1342021,25.1954735 Z M26.3186951,30.9 L22.5545797,34.65 C20.1455458,37.05 20.1455458,40.8 22.5545797,43.2 C24.9002179,45.3907895 28.6733005,45.4484418 30.9550794,43.3729571 L31.1367629,43.2 L34.7503137,39.45 C33.1077906,38.4954545 31.589701,37.4169421 30.3091665,36.2144628 L29.9322459,35.85 L29.5966123,35.50625 C28.3774571,34.2229167 27.2848181,32.6875 26.3186951,30.9 Z M31.1367629,27 C30.7415307,27 30.3462986,27.1148437 30.051933,27.3445312 L29.9322459,27.45 L28.5771644,28.8 C29.2547051,30.15 29.9322459,31.257 30.8293099,32.3397 L31.1367629,32.7 L32.1907152,31.5 C32.7929737,30.9 33.6963614,30.9 34.2986198,31.5 C34.8632371,32.0625 34.8985257,32.8886719 34.4044856,33.4841309 L34.2986198,33.6 L33.2446675,34.65 C34.3287327,35.595 35.412798,36.297 36.7163864,36.9747 L37.1593476,37.2 L38.5144291,35.85 C39.0812606,35.4264706 39.1146036,34.4714533 38.6144582,33.8603399 L38.5144291,33.75 L32.1907152,27.45 C31.8895859,27.15 31.4378921,27 31.1367629,27 Z M48,27 L48,30 L43.4830615,30 L43.4830615,27 L48,27 Z M44.3044517,19.60482 L46.4334354,21.72642 L43.0260979,25.12002 L40.8971142,22.99842 L44.3044517,19.60482 Z M38.966123,18 L38.966123,22.5 L35.9548306,22.5 L35.9548306,18 L38.966123,18 Z" id="ic_iit" fill-rule="nonzero"></path>
                </g>
            </g>
        </g>
    </g>
</svg>