<?xml version="1.0" encoding="UTF-8"?>
<svg width="65px" height="65px" viewBox="0 0 65 65" version="1.1" xmlns="http://www.w3.org/2000/svg" xmlns:xlink="http://www.w3.org/1999/xlink">
    <!-- Generator: sketchtool 57.1 (101010) - https://sketch.com -->
    <title>0ABC7E58-053C-4D5E-BDE4-2753EEA44054</title>
    <desc>Created with sketchtool.</desc>
    <g id="Sustainability" stroke="none" stroke-width="1" fill="none" fill-rule="evenodd">
        <g id="6-sustainability_landing_desktop" transform="translate(-1295.000000, -1374.000000)">
            <g id="Group-2" transform="translate(0.000000, 1087.000000)">
                <g id="quick-link-ctas" transform="translate(0.000000, 237.000000)">
                    <g id="Group-8" transform="translate(225.000000, 0.000000)">
                        <g id="quick-link" transform="translate(1020.000000, 0.000000)">
                            <g id="ic_waste" transform="translate(50.000000, 50.000000)">
                                <circle id="Oval" fill-opacity="0.1" fill="#44B549" cx="32.5" cy="32.5" r="32.5"></circle>
                                <path d="M43.2142857,29.1875 L43.2142857,25.375 L45.0714286,25.375 L45.0714286,19.75 L37.6428571,19.75 L37.6428571,16 L28.3571429,16 L28.3571429,19.75 L20.9285714,19.75 L20.9285714,25.375 L22.7857143,25.375 L22.7857143,29.1875 L20,29.1875 L20,31.0625 L22.7857143,31.0625 L22.7857143,48 L43.2142857,48 L43.2142857,31.0625 L46,31.0625 L46,29.1875 L43.2142857,29.1875 Z M30.2142857,17.875 L35.7857143,17.875 L35.7857143,19.75 L30.2142857,19.75 L30.2142857,17.875 Z M41.3571429,46.125 L24.6428571,46.125 L24.6428571,25.375 L41.3571429,25.375 L41.3571429,46.125 Z M22.7857143,23.5 L22.7857143,21.625 L43.2142857,21.625 L43.2142857,23.5 L22.7857143,23.5 Z" stroke="#60A364" fill="#60A364" fill-rule="nonzero"></path>
                            </g>
                        </g>
                    </g>
                </g>
            </g>
        </g>
    </g>
</svg>