<?xml version="1.0" encoding="UTF-8"?>
<svg width="52px" height="52px" viewBox="0 0 52 52" version="1.1" xmlns="http://www.w3.org/2000/svg" xmlns:xlink="http://www.w3.org/1999/xlink">
    <!-- Generator: sketchtool 57.1 (101010) - https://sketch.com -->
    <title>5B3B2819-B229-4778-8D4E-8033EE9D9E9E</title>
    <desc>Created with sketchtool.</desc>
    <g id="About" stroke="none" stroke-width="1" fill="none" fill-rule="evenodd">
        <g id="8-about_landing_desktop" transform="translate(-1241.000000, -3241.000000)" fill="#475C87">
            <g id="Group-2-Copy" transform="translate(0.000000, 2989.000000)">
                <g id="quick-link-copy-4" transform="translate(990.000000, 232.000000)">
                    <g id="ic_achievements_about" transform="translate(251.000000, 20.000000)">
                        <circle id="Oval" fill-opacity="0.1" cx="26" cy="26" r="26"></circle>
                        <path d="M33.15,15.3 C33.15,15.17 33.02,15.04 33.02,14.91 L32.76,14 L19.24,14 L18.98,14.91 C18.98,15.04 18.85,15.17 18.85,15.3 L13,15.3 L13,20.11 C13,22.58 14.04,24.92 15.73,26.74 C17.42,28.43 19.63,29.34 21.97,29.34 C22.75,29.99 23.66,30.51 24.7,30.64 L24.7,33.5 C22.23,33.89 20.02,35.58 18.98,38.05 L18.2,40 L33.8,40 L33.02,38.18 C31.98,35.71 29.77,34.02 27.3,33.63 L27.3,30.77 C28.34,30.51 29.25,30.12 30.03,29.47 C32.37,29.47 34.58,28.43 36.27,26.87 C37.96,25.05 39,22.71 39,20.11 L39,15.3 L33.15,15.3 Z M15.6,20.11 L15.6,17.9 L18.33,17.9 C18.2,18.94 18.2,19.85 18.2,20.5 C18.2,22.58 18.72,24.53 19.5,26.22 C18.85,25.96 18.2,25.44 17.68,24.92 C16.25,23.62 15.6,21.93 15.6,20.11 Z M22.62,37.4 C23.53,36.62 24.7,36.1 26,36.1 C27.3,36.1 28.47,36.62 29.38,37.4 L22.62,37.4 Z M26,28.3 C23.14,28.3 20.8,24.79 20.8,20.5 C20.8,19.33 20.93,17.77 21.19,16.6 L30.81,16.6 C31.07,17.77 31.2,19.46 31.2,20.5 C31.2,24.79 28.86,28.3 26,28.3 Z M36.4,20.11 C36.4,21.93 35.75,23.62 34.45,24.92 C33.93,25.44 33.28,25.83 32.63,26.22 C33.41,24.53 33.93,22.71 33.93,20.63 C33.93,19.98 33.93,18.94 33.8,18.03 L36.4,18.03 L36.4,20.11 Z" id="ic_achievements" fill-rule="nonzero"></path>
                    </g>
                </g>
            </g>
        </g>
    </g>
</svg>