<?xml version="1.0" encoding="UTF-8"?>
<svg width="65px" height="65px" viewBox="0 0 65 65" version="1.1" xmlns="http://www.w3.org/2000/svg" xmlns:xlink="http://www.w3.org/1999/xlink">
    <!-- Generator: sketchtool 57.1 (101010) - https://sketch.com -->
    <title>C7647320-E42B-4A0A-934B-6C97255A116C</title>
    <desc>Created with sketchtool.</desc>
    <g id="Organiser" stroke="none" stroke-width="1" fill="none" fill-rule="evenodd">
        <g id="2-organiser_landing_desktop" transform="translate(-276.000000, -4539.000000)" fill="#C74E4E">
            <g id="quick-link-ctas" transform="translate(0.000000, 4398.000000)">
                <g id="quick-link" transform="translate(225.000000, 91.000000)">
                    <g id="ic_docs" transform="translate(51.000000, 50.000000)">
                        <circle id="Oval" fill-opacity="0.1" cx="32.5" cy="32.5" r="32.5"></circle>
                        <path d="M49,23 L49,38.275 L38.275,49 L23,49 L23,23 L49,23 Z M45.75,26.25 L26.25,26.25 L26.25,45.75 L36,45.75 L36,36 L45.75,36 L45.75,26.25 Z M43.475,39.25 L39.25,39.25 L39.25,43.475 L43.475,39.25 Z M43,17 L43,20.4666667 L20.4666667,20.4666667 L20.4666667,43 L17,43 L17,17 L43,17 Z"></path>
                    </g>
                </g>
            </g>
        </g>
    </g>
</svg>