<?xml version="1.0" encoding="UTF-8"?>
<svg width="65px" height="65px" viewBox="0 0 65 65" version="1.1" xmlns="http://www.w3.org/2000/svg" xmlns:xlink="http://www.w3.org/1999/xlink">
    <!-- Generator: sketchtool 57.1 (101010) - https://sketch.com -->
    <title>F48571EB-E824-4AFE-8DDA-7F3414D693F9</title>
    <desc>Created with sketchtool.</desc>
    <g id="Supplier" stroke="none" stroke-width="1" fill="none" fill-rule="evenodd">
        <g id="5-supplier_landing_desktop" transform="translate(-273.000000, -1266.000000)" fill="#7899AA">
            <g id="footer-elements" transform="translate(-1.000000, 978.000000)">
                <g id="Group-9" transform="translate(225.000000, 238.000000)">
                    <g id="quick-link">
                        <g id="ic_tender-rfq" transform="translate(49.000000, 50.000000)">
                            <circle id="Oval" opacity="0.1" cx="32.5" cy="32.5" r="32.5"></circle>
                            <path d="M38.9444444,16 L38.9444444,19.2 L47,19.2 L47,48 L18,48 L18,19.2 L26.0555556,19.2 L26.0555556,16 L38.9444444,16 Z M26.0555556,22.4 L21.2222222,22.4 L21.2222222,44.8 L43.7777778,44.8 L43.7777778,22.4 L38.9444444,22.4 L38.9444444,25.6 L26.0555556,25.6 L26.0555556,22.4 Z M27.6666667,35.2 L27.6666667,38.4 L24.4444444,38.4 L24.4444444,35.2 L27.6666667,35.2 Z M40.5555556,35.2 L40.5555556,38.4 L29.2777778,38.4 L29.2777778,35.2 L40.5555556,35.2 Z M27.6666667,28.8 L27.6666667,32 L24.4444444,32 L24.4444444,28.8 L27.6666667,28.8 Z M40.5555556,28.8 L40.5555556,32 L29.2777778,32 L29.2777778,28.8 L40.5555556,28.8 Z M35.7222222,19.2 L29.2777778,19.2 L29.2777778,22.4 L35.7222222,22.4 L35.7222222,19.2 Z"></path>
                        </g>
                    </g>
                </g>
            </g>
        </g>
    </g>
</svg>