<?xml version="1.0" encoding="UTF-8"?>
<svg width="177px" height="177px" viewBox="0 0 177 177" version="1.1" xmlns="http://www.w3.org/2000/svg" xmlns:xlink="http://www.w3.org/1999/xlink">
    <!-- Generator: sketchtool 57.1 (101010) - https://sketch.com -->
    <title>C15A5480-45E9-45E1-B29E-02D380A6800A</title>
    <desc>Created with sketchtool.</desc>
    <defs>
        <circle id="path-1" cx="72.644" cy="72.644" r="72.644"></circle>
        <filter x="-16.2%" y="-15.5%" width="135.1%" height="135.1%" filterUnits="objectBoundingBox" id="filter-2">
            <feOffset dx="2" dy="3" in="SourceAlpha" result="shadowOffsetOuter1"></feOffset>
            <feGaussianBlur stdDeviation="8" in="shadowOffsetOuter1" result="shadowBlurOuter1"></feGaussianBlur>
            <feColorMatrix values="0 0 0 0 0   0 0 0 0 0   0 0 0 0 0  0 0 0 0.154611014 0" type="matrix" in="shadowBlurOuter1"></feColorMatrix>
        </filter>
    </defs>
    <g id="Supplier" stroke="none" stroke-width="1" fill="none" fill-rule="evenodd">
        <g id="5.5-supplier_view-tender" transform="translate(-338.000000, -1897.000000)">
            <g id="step-1" transform="translate(224.000000, 1772.000000)">
                <g id="ic_register" transform="translate(128.000000, 138.000000)">
                    <g id="Oval">
                        <use fill="black" fill-opacity="1" filter="url(#filter-2)" xlink:href="#path-1"></use>
                        <use fill="#FFFFFF" fill-rule="evenodd" xlink:href="#path-1"></use>
                    </g>
                    <path d="M95.25,50.6315789 C91.75,47.122807 85.75,47.122807 82.25,50.6315789 L48,84.716792 L48,98 L61,98 L95.25,63.6641604 C97,61.9097744 98,59.6541353 98,57.1478697 C98,54.641604 97,52.3859649 95.25,50.6315789 Z M59,92.9874687 L53,92.9874687 L53,86.9724311 L79.5,60.1553885 L85.5,66.1704261 L59,92.9874687 Z M91.75,60.1553885 L89.25,62.6616541 L83.25,56.6466165 L85.75,54.1403509 C87.25,52.6365915 90.25,52.6365915 91.75,54.1403509 C92.5,54.8922306 93,55.8947368 93,57.1478697 C93,58.1503759 92.5,59.4035088 91.75,60.1553885 Z" fill="#7899AA" fill-rule="nonzero"></path>
                </g>
            </g>
        </g>
    </g>
</svg>