<?xml version="1.0" encoding="UTF-8"?>
<svg width="32px" height="32px" viewBox="0 0 32 32" version="1.1" xmlns="http://www.w3.org/2000/svg" xmlns:xlink="http://www.w3.org/1999/xlink">
    <!-- Generator: sketchtool 57.1 (101010) - https://sketch.com -->
    <title>D5978611-269A-41D9-8504-6D70F8D9EB95</title>
    <desc>Created with sketchtool.</desc>
    <g id="Visitor" stroke="none" stroke-width="1" fill="none" fill-rule="evenodd">
        <g id="3-visitor_landing_desktop" transform="translate(-293.000000, -3522.000000)" fill="#C1A84C" fill-rule="nonzero">
            <g id="footer-elements" transform="translate(0.000000, 3355.000000)">
                <g id="quick-link-ctas">
                    <g id="quick-link" transform="translate(225.000000, 101.000000)">
                        <g id="ic_know_beforeyougo" transform="translate(51.000000, 49.000000)">
                            <path d="M33,17 C41.8,17 49,24.2 49,33 C49,41.8 41.8,49 33,49 C24.2,49 17,41.8 17,33 C17,24.2 24.2,17 33,17 Z M33,20.2 C25.96,20.2 20.2,25.96 20.2,33 C20.2,40.04 25.96,45.8 33,45.8 C40.04,45.8 45.8,40.04 45.8,33 C45.8,25.96 40.04,20.2 33,20.2 Z M34.6,29.8 L34.6,42.6 L31.4,42.6 L31.4,29.8 L34.6,29.8 Z M34.6,23.4 L34.6,26.6 L31.4,26.6 L31.4,23.4 L34.6,23.4 Z" id="ic_info"></path>
                        </g>
                    </g>
                </g>
            </g>
        </g>
    </g>
</svg>