<?xml version="1.0" encoding="UTF-8"?>
<svg width="45px" height="46px" viewBox="0 0 45 46" version="1.1" xmlns="http://www.w3.org/2000/svg" xmlns:xlink="http://www.w3.org/1999/xlink">
    <!-- Generator: sketchtool 57.1 (101010) - https://sketch.com -->
    <title>76866127-18F4-4579-9547-4CF09A20DC17</title>
    <desc>Created with sketchtool.</desc>
    <g id="Organiser" stroke="none" stroke-width="1" fill="none" fill-rule="evenodd">
        <g id="2-organiser_landing_desktop" transform="translate(-1755.000000, -6153.000000)" fill-rule="nonzero">
            <g id="footer-elements" transform="translate(0.000000, 4849.000000)">
                <g id="footer_desktop" transform="translate(0.000000, 1135.000000)">
                    <g transform="translate(0.000000, -2.005369)" id="Group-6">
                        <g>
                            <g transform="translate(116.000000, 102.273826)">
                                <g id="Group-11-Copy-2" transform="translate(1379.000000, 5.013423)">
                                    <g id="social-icons" transform="translate(0.000000, 64.171812)">
                                        <g id="ic_instagram" transform="translate(260.000000, 0.000000)">
                                            <path d="M22.5,45.1208054 C34.9264069,45.1208054 45,35.020169 45,22.5604027 C45,10.1006363 34.9264069,0 22.5,0 C10.0735931,0 0,10.1006363 0,22.5604027 C0,35.020169 10.0735931,45.1208054 22.5,45.1208054 Z" id="social-icon-bg" fill="#403F4B"></path>
                                            <path d="M26.8568726,13.0348993 L18.1431274,13.0348993 C15.3071594,13.0348993 13,15.3482525 13,18.1918338 L13,26.9291169 C13,29.7725529 15.3071594,32.085906 18.1431274,32.085906 L26.8570175,32.085906 C29.6928406,32.085906 32,29.7725529 32,26.9291169 L32,18.1918338 C32,15.3482525 29.6928406,13.0348993 26.8568726,13.0348993 Z M17.6679344,22.8454796 C17.6679344,20.2002768 19.8141274,18.0483221 22.4522479,18.0483221 C25.0903685,18.0483221 27.2365614,20.2002768 27.2365614,22.8454796 C27.2365614,25.4906825 25.0903685,27.6426371 22.4522479,27.6426371 C19.8141274,27.6426371 17.6679344,25.4906825 17.6679344,22.8454796 Z M28.0575407,18.6994875 C27.0925248,18.6994875 26.3076233,17.9124788 26.3076233,16.9448724 C26.3076233,15.9772659 27.0925248,15.1900915 28.0575407,15.1900915 C29.0225565,15.1900915 29.8076233,15.9772659 29.8076233,16.9448724 C29.8076233,17.9124788 29.0225565,18.6994875 28.0575407,18.6994875 Z" fill="#FFFFFF"></path>
                                        </g>
                                    </g>
                                </g>
                            </g>
                        </g>
                    </g>
                </g>
            </g>
        </g>
    </g>
</svg>