<?xml version="1.0" encoding="UTF-8"?>
<svg width="32px" height="32px" viewBox="0 0 32 32" version="1.1" xmlns="http://www.w3.org/2000/svg" xmlns:xlink="http://www.w3.org/1999/xlink">
    <!-- Generator: sketchtool 57.1 (101010) - https://sketch.com -->
    <title>37260753-2200-44F0-A1F4-2886E623DC60</title>
    <desc>Created with sketchtool.</desc>
    <g id="Visitor" stroke="none" stroke-width="1" fill="none" fill-rule="evenodd">
        <g id="3-visitor_landing_desktop" transform="translate(-1311.000000, -3521.000000)" fill="#C1A84C" fill-rule="nonzero">
            <g id="footer-elements" transform="translate(0.000000, 3355.000000)">
                <g id="quick-link-ctas">
                    <g id="quick-link" transform="translate(1245.000000, 101.000000)">
                        <g id="ic_faq" transform="translate(49.000000, 48.000000)">
                            <path d="M33,17 C41.8,17 49,24.2 49,33 C49,41.8 41.8,49 33,49 C24.2,49 17,41.8 17,33 C17,24.2 24.2,17 33,17 Z M33,20.2 C25.96,20.2 20.2,25.96 20.2,33 C20.2,40.04 25.96,45.8 33,45.8 C40.04,45.8 45.8,40.04 45.8,33 C45.8,25.96 40.04,20.2 33,20.2 Z M34.6,37.8 L34.6,41 L31.4,41 L31.4,37.8 L34.6,37.8 Z M33,25 C35.72,25 37.8,27.08 37.8,29.8 C37.8,31.8057143 36.6097959,33.5138776 34.6597741,34.2071793 L34.44,34.28 L34.6,36.2 L31.4,36.2 L31.4,34.44 C31.4,33 32.2,31.72 33.48,31.24 C34.12,31.08 34.6,30.44 34.6,29.8 C34.6,28.84 33.96,28.2 33,28.2 C32.0933333,28.2 31.4720988,28.7708642 31.4058711,29.6430178 L31.4,29.8 L28.2,29.8 C28.2,27.08 30.28,25 33,25 Z"></path>
                        </g>
                    </g>
                </g>
            </g>
        </g>
    </g>
</svg>