<?xml version="1.0" encoding="UTF-8"?>
<svg width="34px" height="34px" viewBox="0 0 34 34" version="1.1" xmlns="http://www.w3.org/2000/svg" xmlns:xlink="http://www.w3.org/1999/xlink">
    <!-- Generator: sketchtool 57.1 (101010) - https://sketch.com -->
    <title>944CCC05-E2FC-42F6-A13B-55148CC7D7D2</title>
    <desc>Created with sketchtool.</desc>
    <g id="Organiser" stroke="none" stroke-width="1" fill="none" fill-rule="evenodd">
        <g id="2-organiser_landing_desktop" transform="translate(-801.000000, -4553.000000)" fill="#C74E4E">
            <g id="quick-link-ctas" transform="translate(0.000000, 4398.000000)">
                <g id="quick-link" transform="translate(735.000000, 91.000000)">
                    <g id="ic_explore" transform="translate(50.000000, 48.000000)">
                        <path d="M48.1393035,41.16 C46.4477612,39.63 41.880597,36.06 39.0049751,36.06 C38.8358209,36.06 38.6666667,36.06 38.4975124,36.06 L37.3134328,34.87 C38.8358209,33 39.681592,30.45 39.681592,27.9 C39.681592,24.67 38.4975124,21.78 36.1293532,19.57 C33.9303483,17.19 31.0547264,16 27.840796,16 C24.6268657,16 21.7512438,17.19 19.5522388,19.4 C17.1840796,21.78 16,24.67 16,27.9 C16,31.13 17.1840796,34.02 19.5522388,36.23 C21.7512438,38.61 24.6268657,39.8 27.840796,39.8 C30.3781095,39.8 32.9154229,38.95 34.9452736,37.42 L36.1293532,38.61 C35.7910448,41.5 39.0049751,45.75 41.2039801,48.3 C42.2189055,49.32 43.5721393,50 44.9253731,50 C46.278607,50 47.4626866,49.49 48.4776119,48.47 C49.4925373,47.45 50,46.09 50,44.73 C49.8308458,43.37 49.1542289,42.18 48.1393035,41.16 Z M21.920398,33.85 C20.2288557,32.32 19.3830846,30.11 19.3830846,27.9 C19.3830846,25.69 20.2288557,23.48 21.920398,21.95 C23.4427861,20.25 25.641791,19.4 27.840796,19.4 C30.039801,19.4 32.238806,20.25 33.761194,21.95 C35.4527363,23.48 36.2985075,25.69 36.2985075,27.9 C36.2985075,30.11 35.4527363,32.32 33.761194,33.85 C32.238806,35.55 30.039801,36.4 27.840796,36.4 C25.641791,36.4 23.4427861,35.55 21.920398,33.85 Z M45.9402985,46.09 C45.2636816,46.77 44.2487562,46.6 43.5721393,45.92 C40.8656716,42.86 39.681592,40.65 39.3432836,39.46 C40.5273632,39.8 42.7263682,40.99 45.7711443,43.71 C46.1094527,44.05 46.278607,44.39 46.278607,44.9 C46.4477612,45.41 46.278607,45.75 45.9402985,46.09 Z"></path>
                    </g>
                </g>
            </g>
        </g>
    </g>
</svg>