<?xml version="1.0" encoding="UTF-8"?>
<svg width="65px" height="65px" viewBox="0 0 65 65" version="1.1" xmlns="http://www.w3.org/2000/svg" xmlns:xlink="http://www.w3.org/1999/xlink">
    <!-- Generator: sketchtool 57.1 (101010) - https://sketch.com -->
    <title>43AD2587-3B38-4051-A45E-9FB795AAD075</title>
    <desc>Created with sketchtool.</desc>
    <g id="Visitor" stroke="none" stroke-width="1" fill="none" fill-rule="evenodd">
        <g id="3-visitor_landing_desktop" transform="translate(-782.000000, -3504.000000)" fill="#C1A84C">
            <g id="footer-elements" transform="translate(0.000000, 3355.000000)">
                <g id="quick-link-ctas">
                    <g id="quick-link" transform="translate(735.000000, 101.000000)">
                        <g id="ic_transport" transform="translate(47.000000, 48.000000)">
                            <circle id="Oval" fill-opacity="0.1" cx="32.5" cy="32.5" r="32.5"></circle>
                            <path d="M49,29.8571429 C49,25.4571429 45.48,22 41,22 L17,22 L17,40.8571429 L20.52,40.8571429 C21.16,42.7428571 22.92,44 25,44 C27.08,44 28.84,42.7428571 29.48,40.8571429 L36.52,40.8571429 C37.16,42.7428571 38.92,44 41,44 C43.08,44 44.84,42.7428571 45.48,40.8571429 L49,40.8571429 L49,29.8571429 Z M45.8,29.8571429 L45.8,29.8571429 L39.4,29.8571429 L39.4,25.1428571 L41,25.1428571 C43.72,25.1428571 45.8,27.1857143 45.8,29.8571429 Z M29.8,29.8571429 L29.8,25.1428571 L36.2,25.1428571 L36.2,29.8571429 L29.8,29.8571429 Z M26.6,25.1428571 L26.6,29.8571429 L20.2,29.8571429 L20.2,25.1428571 L26.6,25.1428571 Z M20.2,33 L45.8,33 L45.8,37.7142857 L45.48,37.7142857 C44.84,35.8285714 43.08,34.5714286 41,34.5714286 C38.92,34.5714286 37.16,35.8285714 36.52,37.7142857 L29.48,37.7142857 C28.84,35.8285714 27.08,34.5714286 25,34.5714286 C22.92,34.5714286 21.16,35.8285714 20.52,37.7142857 L20.2,37.7142857 L20.2,33 Z M25,40.8571429 C24.04,40.8571429 23.4,40.2285714 23.4,39.2857143 C23.4,38.3428571 24.04,37.7142857 25,37.7142857 C25.96,37.7142857 26.6,38.3428571 26.6,39.2857143 C26.6,40.2285714 25.96,40.8571429 25,40.8571429 Z M41,40.8571429 C40.04,40.8571429 39.4,40.2285714 39.4,39.2857143 C39.4,38.3428571 40.04,37.7142857 41,37.7142857 C41.96,37.7142857 42.6,38.3428571 42.6,39.2857143 C42.6,40.2285714 41.96,40.8571429 41,40.8571429 Z" fill-rule="nonzero"></path>
                        </g>
                    </g>
                </g>
            </g>
        </g>
    </g>
</svg>