<?xml version="1.0" encoding="UTF-8"?>
<svg width="49px" height="20px" viewBox="0 0 49 20" version="1.1" xmlns="http://www.w3.org/2000/svg" xmlns:xlink="http://www.w3.org/1999/xlink">
    <!-- Generator: sketchtool 57.1 (101010) - https://sketch.com -->
    <title>44A06516-0E80-48B7-AA16-AD2627D287EA</title>
    <desc>Created with sketchtool.</desc>
    <g id="Organiser" stroke="none" stroke-width="1" fill="none" fill-rule="evenodd">
        <g id="2-organiser_landing_desktop" transform="translate(-1303.000000, -4560.000000)" fill="#C74E4E">
            <g id="quick-link-ctas" transform="translate(0.000000, 4398.000000)">
                <g id="quick-link" transform="translate(1245.000000, 91.000000)">
                    <g id="ic_ct" transform="translate(50.000000, 50.000000)">
                        <path d="M41.7241379,21 L44.915,31.17 L48.5,24 L57,41 L17,41 L17.033,40.895 L8,40.8958722 L18.5,26.2871765 L20.669,29.305 L23.2758621,21 L41.7241379,21 Z M48.5,30.7082039 L44.854102,38 L52.145898,38 L48.5,30.7082039 Z M39.0978084,24.0157009 L25.9021916,24.0157009 L22.904,32.413 L26.908,37.984 L41.508,37.984 L42.511,35.977 L39.0978084,24.0157009 Z M18.5,31.4273662 L13.8507613,37.8958722 L23.1492387,37.8958722 L18.5,31.4273662 Z"></path>
                    </g>
                </g>
            </g>
        </g>
    </g>
</svg>