<?xml version="1.0" encoding="UTF-8"?>
<svg width="65px" height="65px" viewBox="0 0 65 65" version="1.1" xmlns="http://www.w3.org/2000/svg" xmlns:xlink="http://www.w3.org/1999/xlink">
    <!-- Generator: sketchtool 57.1 (101010) - https://sketch.com -->
    <title>471B27CE-56A8-4EAE-91E0-CD4F084B855B</title>
    <desc>Created with sketchtool.</desc>
    <g id="Supplier" stroke="none" stroke-width="1" fill="none" fill-rule="evenodd">
        <g id="5-supplier_landing_desktop" transform="translate(-1051.000000, -1266.000000)" fill="#7899AA">
            <g id="footer-elements" transform="translate(-1.000000, 978.000000)">
                <g id="Group-9" transform="translate(225.000000, 238.000000)">
                    <g id="quick-link" transform="translate(765.000000, 0.000000)">
                        <g id="ic_opening-reg" transform="translate(62.000000, 50.000000)">
                            <circle id="Oval" opacity="0.1" cx="32.5" cy="32.5" r="32.5"></circle>
                            <path d="M26.2,28.0555556 C30.11,28.0555556 33.51,30.1222222 35.21,33.5666667 C36.23,33.3944444 37.08,33.2222222 38.1,33.2222222 C44.628,33.2222222 49.8375243,38.3981012 49.9962722,44.9687705 L50,45.2777778 L50,47 L26.2,47 L26.2,45.2777778 C26.2,43.5096296 26.4961778,41.8915062 27.2267496,40.4234074 L27.39,40.1111111 L16,40.1111111 L16,38.3888889 C16,32.7055556 20.59,28.0555556 26.2,28.0555556 Z M38.1,36.6666667 C34.1086957,36.6666667 30.7681474,39.4685334 29.8290309,43.2987067 L29.77,43.5555556 L46.43,43.5555556 C45.58,39.5944444 42.18,36.6666667 38.1,36.6666667 Z M26.2,31.5 C23.0597222,31.5 20.5621914,33.6162337 19.6447467,36.4243131 L19.57,36.6666667 L29.77,36.6666667 C30.45,35.9777778 31.13,35.4611111 31.98,34.9444444 C30.79,32.8777778 28.58,31.5 26.2,31.5 Z M38.1,21.1666667 C40.99,21.1666667 43.2,23.4055556 43.2,26.3333333 C43.2,29.2611111 40.99,31.5 38.1,31.5 C35.21,31.5 33,29.2611111 33,26.3333333 C33,23.4055556 35.21,21.1666667 38.1,21.1666667 Z M38.1,24.6111111 C37.08,24.6111111 36.4,25.3 36.4,26.3333333 C36.4,27.3666667 37.08,28.0555556 38.1,28.0555556 C39.12,28.0555556 39.8,27.3666667 39.8,26.3333333 C39.8,25.3 39.12,24.6111111 38.1,24.6111111 Z M26.2,16 C29.09,16 31.3,18.2388889 31.3,21.1666667 C31.3,24.0944444 29.09,26.3333333 26.2,26.3333333 C23.31,26.3333333 21.1,24.0944444 21.1,21.1666667 C21.1,18.2388889 23.31,16 26.2,16 Z M26.2,19.4444444 C25.18,19.4444444 24.5,20.1333333 24.5,21.1666667 C24.5,22.2 25.18,22.8888889 26.2,22.8888889 C27.22,22.8888889 27.9,22.2 27.9,21.1666667 C27.9,20.1333333 27.22,19.4444444 26.2,19.4444444 Z" fill-rule="nonzero"></path>
                        </g>
                    </g>
                </g>
            </g>
        </g>
    </g>
</svg>