<?xml version="1.0" encoding="UTF-8"?>
<svg width="177px" height="177px" viewBox="0 0 177 177" version="1.1" xmlns="http://www.w3.org/2000/svg" xmlns:xlink="http://www.w3.org/1999/xlink">
    <!-- Generator: sketchtool 57.1 (101010) - https://sketch.com -->
    <title>62D187A3-4C60-4A1A-936B-B9E6898DEFC4</title>
    <desc>Created with sketchtool.</desc>
    <defs>
        <circle id="path-1" cx="72.644" cy="72.644" r="72.644"></circle>
        <filter x="-16.2%" y="-15.5%" width="135.1%" height="135.1%" filterUnits="objectBoundingBox" id="filter-2">
            <feOffset dx="2" dy="3" in="SourceAlpha" result="shadowOffsetOuter1"></feOffset>
            <feGaussianBlur stdDeviation="8" in="shadowOffsetOuter1" result="shadowBlurOuter1"></feGaussianBlur>
            <feColorMatrix values="0 0 0 0 0   0 0 0 0 0   0 0 0 0 0  0 0 0 0.154611014 0" type="matrix" in="shadowBlurOuter1"></feColorMatrix>
        </filter>
    </defs>
    <g id="Supplier" stroke="none" stroke-width="1" fill="none" fill-rule="evenodd">
        <g id="5.5-supplier_view-tender" transform="translate(-338.000000, -2435.000000)">
            <g id="step-1-copy-3" transform="translate(224.000000, 2249.000000)">
                <g id="ic_request" transform="translate(128.000000, 199.000000)">
                    <g id="Oval">
                        <use fill="black" fill-opacity="1" filter="url(#filter-2)" xlink:href="#path-1"></use>
                        <use fill="#FFFFFF" fill-rule="evenodd" xlink:href="#path-1"></use>
                    </g>
                    <path d="M93.75,81.25 L80.5,79.25 L80.5,71.5 L88,71.5 L88,49 L48,49 L48,71.5 L65.5,71.5 L65.5,76 C63,73.75 58.75,73.5 56.25,75.5 C54.5,76.75 53.25,78.75 53.25,81 C53,83.25 53.75,85.25 55.5,87 L65.5,97 L65.5,99 L98,99 L98,86.25 C98,83.75 96.25,81.5 93.75,81.25 Z M53,66.5 L53,54 L83,54 L83,66.5 L80.5,66.5 C80.5,62.75 77.75,59.75 74.25,59 C69.5,58.25 65.5,62 65.5,66.5 L53,66.5 Z M93,94 L69.5,94 L58.75,83.25 C58.25,82.75 58,82 58,81.25 C58,80.5 58.5,79.75 59,79.5 C59.5,79 60,79 60.5,79 C61.25,79 62,79.25 62.5,80 L70.5,88 L70.5,66.5 C70.5,65 71.75,63.75 73.5,64 C74.5,64.25 75.5,65.5 75.5,66.75 L75.5,83.75 L93,86.25 L93,94 Z" fill="#7899AA" fill-rule="nonzero"></path>
                </g>
            </g>
        </g>
    </g>
</svg>