<?xml version="1.0" encoding="UTF-8"?>
<svg width="21px" height="21px" viewBox="0 0 21 21" version="1.1" xmlns="http://www.w3.org/2000/svg" xmlns:xlink="http://www.w3.org/1999/xlink">
    <!-- Generator: sketchtool 57.1 (101010) - https://sketch.com -->
    <title>797ACF39-A221-456C-9237-C8F3257B411B</title>
    <desc>Created with sketchtool.</desc>
    <g id="Visitor" stroke="none" stroke-width="1" fill="none" fill-rule="evenodd">
        <g id="3.2-visitor_windividual-event_desktop" transform="translate(-1292.000000, -883.000000)" fill="#C1A84C" fill-rule="nonzero">
            <g id="Group-43-Copy" transform="translate(0.000000, 631.000000)">
                <g id="Group-42" transform="translate(243.000000, 82.000000)">
                    <g id="Group-41" transform="translate(1047.000000, 0.000000)">
                        <g id="Group-40" transform="translate(1.000000, 67.000000)">
                            <path d="M21.6969168,118.541106 L15.919778,112.767276 L19.2810224,111.402552 C19.7011779,111.192595 19.9112557,110.77268 19.9112557,110.352765 C19.9112557,109.93285 19.596139,109.512935 19.2810224,109.407956 L2.47480042,103.109232 C2.05464487,102.899275 1.63448933,103.004254 1.31937266,103.31919 C1.004256,103.634126 0.899217116,104.054041 1.10929489,104.473956 L7.41162812,121.270553 C7.51666701,121.585489 7.93682256,121.900425 8.35697811,121.900425 C8.35697811,121.900425 8.35697811,121.900425 8.35697811,121.900425 C8.77713366,121.900425 9.1972892,121.690468 9.30232809,121.270553 L10.6678336,117.911234 L16.4449724,123.685064 C16.6550502,123.895021 16.865128,124 17.1802446,124 C17.4953613,124 17.7054391,123.895021 17.9155168,123.685064 L21.5918779,120.010808 C22.1170723,119.590893 22.1170723,118.856042 21.6969168,118.541106 Z M17.2852835,121.48051 L11.0879892,115.286765 C10.8779114,115.076808 10.6678336,114.971829 10.352717,114.971829 C10.2476781,114.971829 10.2476781,114.971829 10.1426392,114.971829 C9.82752253,115.076808 9.51240587,115.286765 9.40736698,115.601701 L8.35697811,117.911234 L3.84030596,105.838679 L15.919778,110.352765 L13.6089225,111.297573 C13.2938058,111.402552 13.083728,111.717488 12.9786891,112.032425 C12.8736503,112.347361 12.9786891,112.767276 13.2938058,112.977233 L19.4911002,119.170978 L17.2852835,121.48051 Z" id="ic_website"></path>
                        </g>
                    </g>
                </g>
            </g>
        </g>
    </g>
</svg>