<?xml version="1.0" encoding="UTF-8"?>
<svg width="19px" height="19px" viewBox="0 0 19 19" version="1.1" xmlns="http://www.w3.org/2000/svg" xmlns:xlink="http://www.w3.org/1999/xlink">
    <!-- Generator: sketchtool 57.1 (101010) - https://sketch.com -->
    <title>4686CAF5-CC73-4146-AE79-D83BEF564760</title>
    <desc>Created with sketchtool.</desc>
    <g id="Visitor" stroke="none" stroke-width="1" fill="none" fill-rule="evenodd">
        <g id="3.2-visitor_windividual-event_desktop" transform="translate(-1434.000000, -962.000000)" fill="#C1A84C" fill-rule="nonzero">
            <g id="Group-43-Copy" transform="translate(0.000000, 631.000000)">
                <g id="Group-42" transform="translate(243.000000, 82.000000)">
                    <g id="Group-41" transform="translate(1047.000000, 0.000000)">
                        <g id="Group-40" transform="translate(1.000000, 67.000000)">
                            <g id="social-icons" transform="translate(0.000000, 169.000000)">
                                <g id="ic_linkedin-copy" transform="translate(130.000000, 0.000000)">
                                    <path d="M26.8568726,13 L18.1431274,13 C15.3071594,13 13,15.3071594 13,18.1431274 L13,26.8570175 C13,29.6928406 15.3071594,32 18.1431274,32 L26.8570175,32 C29.6928406,32 32,29.6928406 32,26.8570175 L32,18.1431274 C32,15.3071594 29.6928406,13 26.8568726,13 Z M17.6679344,22.7843135 C17.6679344,20.1461929 19.8141274,18 22.4522479,18 C25.0903685,18 27.2365614,20.1461929 27.2365614,22.7843135 C27.2365614,25.4224341 25.0903685,27.568627 22.4522479,27.568627 C19.8141274,27.568627 17.6679344,25.4224341 17.6679344,22.7843135 Z M28.0575407,18.6494219 C27.0925248,18.6494219 26.3076233,17.8645204 26.3076233,16.8995046 C26.3076233,15.9344888 27.0925248,15.1494219 28.0575407,15.1494219 C29.0225565,15.1494219 29.8076233,15.9344888 29.8076233,16.8995046 C29.8076233,17.8645204 29.0225565,18.6494219 28.0575407,18.6494219 Z" id="ic_instagram"></path>
                                </g>
                            </g>
                        </g>
                    </g>
                </g>
            </g>
        </g>
    </g>
</svg>