<?xml version="1.0" encoding="UTF-8"?>
<svg width="21px" height="21px" viewBox="0 0 21 21" version="1.1" xmlns="http://www.w3.org/2000/svg" xmlns:xlink="http://www.w3.org/1999/xlink">
    <!-- Generator: sketchtool 57.1 (101010) - https://sketch.com -->
    <title>1F1A902B-5092-4EAE-B13D-E52BE9C6087F</title>
    <desc>Created with sketchtool.</desc>
    <g id="Visitor" stroke="none" stroke-width="1" fill="none" fill-rule="evenodd">
        <g id="3.2-visitor_windividual-event_desktop" transform="translate(-1292.000000, -792.000000)" fill="#C1A84C" fill-rule="nonzero">
            <g id="Group-43-Copy" transform="translate(0.000000, 631.000000)">
                <g id="Group-42" transform="translate(243.000000, 82.000000)">
                    <g id="Group-41" transform="translate(1047.000000, 0.000000)">
                        <g id="Group-40" transform="translate(1.000000, 67.000000)">
                            <path d="M17.8860752,23.235 C17.0421932,22.395 15.5653997,22.29 14.6160324,23.235 L13.6666651,24.285 C13.0337536,24.285 11.7679306,23.55 11.1350191,22.92 C10.3966223,22.185 9.76371081,20.925 9.76371081,20.505 L10.7130781,19.56 C11.6624453,18.615 11.6624453,17.25 10.7130781,16.305 L7.12657952,12.63 C6.28269751,11.79 4.80590398,11.79 3.85653672,12.63 L2.48522845,14.1 C-0.468358598,17.04 1.11392018,23.13 6.071727,27.96 C9.1307993,31.005 13.0337536,33 16.0928259,33 C17.6751047,33 19.046413,32.475 19.9957802,31.53 L21.3670885,30.06 C21.7890295,29.64 22,29.01 22,28.38 C22,27.75 21.7890295,27.225 21.3670885,26.7 L17.8860752,23.235 Z M19.890295,28.59 L18.5189867,30.06 C17.9915604,30.585 17.1476784,30.9 16.0928259,30.9 C13.5611799,30.9 10.2911371,29.22 7.54852053,26.49 C3.64556622,22.605 1.95780219,17.565 3.96202197,15.57 L5.43881549,14.1 C5.43881549,14.1 5.43881549,14.1 5.54430075,14.1 C5.54430075,14.1 5.649786,14.1 5.649786,14.205 L9.23628455,17.775 C9.3417698,17.88 9.3417698,17.985 9.23628455,18.09 L8.18143204,19.14 C7.75949103,19.56 7.33755002,20.4 8.07594678,22.08 C8.49788779,22.92 9.02531405,23.865 9.65822556,24.495 C10.6075928,25.44 12.4008421,26.49 13.6666651,26.49 C14.4050619,26.49 14.8270029,26.175 15.0379734,25.965 L16.0928259,24.81 C16.1983112,24.705 16.3037964,24.705 16.4092817,24.81 L19.9957802,28.38 C19.9957802,28.275 19.9957802,28.485 19.890295,28.59 Z" id="ic_phone"></path>
                        </g>
                    </g>
                </g>
            </g>
        </g>
    </g>
</svg>