<?xml version="1.0" encoding="UTF-8"?>
<svg width="120px" height="120px" viewBox="0 0 120 120" version="1.1" xmlns="http://www.w3.org/2000/svg" xmlns:xlink="http://www.w3.org/1999/xlink">
    <!-- Generator: sketchtool 57.1 (101010) - https://sketch.com -->
    <title>3C93A3EA-680D-4F1C-AF4E-9C8DD144784C</title>
    <desc>Created with sketchtool.</desc>
    <defs>
        <path d="M20.2409445,13.5914667 C23.8905216,13.5914667 26.8630669,16.5172749 26.987906,20.1493472 L26.991988,20.3872 L26.991988,29.4522667 L32.7681516,29.4522667 L39.1048712,40.0752 L41.737047,38.7504 C42.8459729,38.1984 44.1986188,38.6522667 44.7591748,39.7685333 C45.2953587,40.8362667 44.9061439,42.1284638 43.8901398,42.7218954 L43.7477368,42.7984 L37.3866453,46 L30.2212778,33.9786667 L13.489901,33.9786667 L13.489901,20.3872 C13.489901,16.6336 16.5120288,13.5914667 20.2409445,13.5914667 Z M9.6147533,14.8549333 L11.3695372,19.0256 C7.18973948,20.8042667 4.49663367,24.9013333 4.49663367,29.4645333 C4.49663367,35.7082667 9.54163731,40.7866667 15.7443109,40.7866667 C18.9370426,40.7866667 21.9957284,39.4128 24.1404642,37.0208 L24.1404642,37.0208 L27.491614,40.0384 C24.5060442,43.3994667 20.2287585,45.3253333 15.7564969,45.3253333 C7.06787949,45.3253333 1.84741111e-13,38.2106667 1.84741111e-13,29.4645333 C1.84741111e-13,23.0736 3.77765973,17.3450667 9.6147533,14.8549333 L9.6147533,14.8549333 Z M20.2531305,18.1178667 C19.0619491,18.1178667 18.0834092,19.0529231 18.0039322,20.2320707 L17.9987207,20.3872 L17.9987207,29.4522667 L22.5075404,29.4522667 L22.5075404,20.3872 C22.5075404,19.136 21.4961024,18.1178667 20.2531305,18.1178667 Z M21.3742424,-1.84741111e-13 C24.4816722,-1.84741111e-13 27.004174,2.5392 27.004174,5.6672 C27.004174,8.7952 24.4816722,11.3344 21.3742424,11.3344 C18.2668127,11.3344 15.7443109,8.7952 15.7443109,5.6672 C15.7443109,2.5392 18.2668127,-1.84741111e-13 21.3742424,-1.84741111e-13 Z M21.3742424,4.53866667 C20.7527565,4.53866667 20.2409445,5.05386667 20.2531305,5.6672 C20.2531305,6.2928 20.7527565,6.79573333 21.3742424,6.79573333 C21.9957284,6.79573333 22.4953544,6.2928 22.4953544,5.6672 C22.4953544,5.0416 21.9957284,4.53866667 21.3742424,4.53866667 Z" id="path-1"></path>
    </defs>
    <g id="Organiser" stroke="none" stroke-width="1" fill="none" fill-rule="evenodd">
        <g id="2-organiser_landing_desktop" transform="translate(-1420.000000, -5272.000000)">
            <g id="footer-elements" transform="translate(0.000000, 4849.000000)">
                <g id="quick-link-icons_desktop" transform="translate(0.000000, 300.000000)">
                    <g id="quick-link-icons_red_desktop">
                        <g>
                            <g id="Group-9" transform="translate(1220.000000, 0.000000)">
                                <g id="Group-22" transform="translate(71.000000, 123.000000)">
                                    <g id="ic_acessability" transform="translate(129.000000, 0.000000)">
                                        <circle id="icon-bg" fill="#4D4E59" cx="60" cy="60" r="60"></circle>
                                        <g id="Rectangle" transform="translate(40.000000, 36.000000)">
                                            <mask id="mask-2" fill="white">
                                                <use xlink:href="#path-1"></use>
                                            </mask>
                                            <use id="Mask" fill="#FFFFFF" fill-rule="nonzero" xlink:href="#path-1"></use>
                                            <rect fill="#CACBCD" mask="url(#mask-2)" x="13" y="23" width="32" height="32" rx="13.5"></rect>
                                        </g>
                                    </g>
                                </g>
                            </g>
                        </g>
                    </g>
                </g>
            </g>
        </g>
    </g>
</svg>