<?xml version="1.0" encoding="UTF-8"?>
<svg width="21px" height="18px" viewBox="0 0 21 18" version="1.1" xmlns="http://www.w3.org/2000/svg" xmlns:xlink="http://www.w3.org/1999/xlink">
    <!-- Generator: sketchtool 57.1 (101010) - https://sketch.com -->
    <title>91C1C81A-DB2D-4943-B079-E97C70D66A8A</title>
    <desc>Created with sketchtool.</desc>
    <g id="Visitor" stroke="none" stroke-width="1" fill="none" fill-rule="evenodd">
        <g id="3.2-visitor_windividual-event_desktop" transform="translate(-1368.000000, -963.000000)" fill="#C1A84C">
            <g id="Group-43-Copy" transform="translate(0.000000, 631.000000)">
                <g id="Group-42" transform="translate(243.000000, 82.000000)">
                    <g id="Group-41" transform="translate(1047.000000, 0.000000)">
                        <g id="Group-40" transform="translate(1.000000, 67.000000)">
                            <g id="social-icons" transform="translate(0.000000, 169.000000)">
                                <g id="ic_social_twitter" transform="translate(65.000000, 0.000000)">
                                    <path d="M30.75075,18.4755 C30.759,18.66 30.7635,18.846 30.7635,19.032 C30.7635,24.69525 26.454,31.22325 18.56925,31.22325 C16.149,31.22325 13.896,30.516 12,29.2995 C12.33525,29.33925 12.6765,29.3595 13.02225,29.3595 C15.03075,29.3595 16.878,28.674 18.345,27.525 C16.47,27.4905 14.88675,26.2515 14.3415,24.54825 C14.6025,24.59775 14.87175,24.6255 15.147,24.6255 C15.53775,24.6255 15.91725,24.5745 16.2765,24.47625 C14.316,24.08325 12.83925,22.3515 12.83925,20.274 C12.83925,20.256 12.83925,20.23725 12.84,20.22 C13.4175,20.54025 14.07825,20.73375 14.78025,20.7555 C13.63125,19.98825 12.8745,18.67575 12.8745,17.18925 C12.8745,16.40325 13.08525,15.66675 13.45425,15.03375 C15.567,17.62725 18.726,19.33275 22.287,19.51275 C22.2135,19.1985 22.17675,18.87225 22.17675,18.5355 C22.17675,16.16925 24.09525,14.25 26.4615,14.25 C27.6945,14.25 28.80675,14.7705 29.58975,15.603 C30.567,15.411 31.482,15.0555 32.31225,14.56275 C31.98975,15.564 31.3125,16.40325 30.42525,16.93425 C31.293,16.83075 32.121,16.60125 32.88675,16.26 C32.31525,17.118 31.5885,17.87325 30.75075,18.4755 Z"></path>
                                </g>
                            </g>
                        </g>
                    </g>
                </g>
            </g>
        </g>
    </g>
</svg>