<?xml version="1.0" encoding="UTF-8"?>
<svg width="32px" height="32px" viewBox="0 0 32 32" version="1.1" xmlns="http://www.w3.org/2000/svg" xmlns:xlink="http://www.w3.org/1999/xlink">
    <!-- Generator: sketchtool 57.1 (101010) - https://sketch.com -->
    <title>D27D603E-6596-47B6-ABEE-B16D150132EA</title>
    <desc>Created with sketchtool.</desc>
    <g id="Careers" stroke="none" stroke-width="1" fill="none" fill-rule="evenodd">
        <g id="7-careers_landing_desktop" transform="translate(-765.000000, -1365.000000)" fill="#9BCA5C" fill-rule="nonzero">
            <g id="Group-4-Copy-2" transform="translate(225.000000, 1318.000000)">
                <g id="Group-6">
                    <g id="Group-5" transform="translate(495.000000, 0.000000)">
                        <g id="image_card_news">
                            <g id="image_news-1">
                                <g id="Group-23" transform="translate(28.000000, 30.000000)">
                                    <g id="ic_benefit_uniform">
                                        <path d="M33,23.4 C33.64,23.4 34.44,23.56 35.08,23.56 C38.76,24.36 41.8,27.56 42.44,31.4 C42.92,34.44 41.96,37.48 39.72,39.72 C38.6589474,40.9326316 37.885097,42.1452632 37.8065782,43.9020674 L37.8,44.2 L37.8,45.8 C37.8,47.4993103 36.4575981,48.9003092 34.7808815,48.9949092 L34.6,49 L31.4,49 C29.7006897,49 28.2996908,47.6575981 28.2050908,45.9808815 L28.2,45.8 L28.2,44.2 C28.2,42.44 27.56,41.16 26.44,40.04 C24.52,38.12 23.4,35.56 23.4,33 C23.4,27.72 27.72,23.4 33,23.4 Z M33.24,26.6007407 L33,26.6 C29.48,26.6 26.6,29.48 26.6,33 C26.6,34.76 27.24,36.52 28.68,37.64 C30.3634783,39.3234783 31.3150095,41.4461248 31.3945689,43.8679149 L31.4,44.2 L31.4,45.8 L34.6,45.8 L34.6,44.2 C34.6,40.84 36.04,38.92 37.48,37.48 C39.08,36.04 39.72,33.96 39.4,31.88 C38.92,29.32 36.84,27.24 34.44,26.76 C34.12,26.6533333 33.8,26.6177778 33.48,26.6059259 L33.24,26.6007407 Z M20.2,31.4 L20.2,34.6 L17,34.6 L17,31.4 L20.2,31.4 Z M49,31.4 L49,34.6 L45.8,34.6 L45.8,31.4 L49,31.4 Z M22.829008,20.671056 L25.091728,22.933776 L22.829008,25.196496 L20.566288,22.933776 L22.829008,20.671056 Z M43.086592,20.58576 L45.349312,22.84848 L43.086592,25.1112 L40.823872,22.84848 L43.086592,20.58576 Z M34.6,17 L34.6,20.2 L31.4,20.2 L31.4,17 L34.6,17 Z" id="ic_innovation"></path>
                                    </g>
                                </g>
                            </g>
                        </g>
                    </g>
                </g>
            </g>
        </g>
    </g>
</svg>