<?xml version="1.0" encoding="UTF-8"?>
<svg width="29px" height="29px" viewBox="0 0 29 29" version="1.1" xmlns="http://www.w3.org/2000/svg" xmlns:xlink="http://www.w3.org/1999/xlink">
    <!-- Generator: sketchtool 57.1 (101010) - https://sketch.com -->
    <title>058695B9-843F-44EC-B494-C1B1C59031AA</title>
    <desc>Created with sketchtool.</desc>
    <g id="Careers" stroke="none" stroke-width="1" fill="none" fill-rule="evenodd">
        <g id="7-careers_landing_desktop" transform="translate(-1264.000000, -1367.000000)" fill="#F6863D" fill-rule="nonzero">
            <g id="Group-4-Copy-2" transform="translate(225.000000, 1318.000000)">
                <g id="Group-6">
                    <g id="Group-5" transform="translate(991.000000, 0.000000)">
                        <g id="image_card_news">
                            <g id="image_news-1">
                                <g id="ic_benefit_uniform-copy-4" transform="translate(30.000000, 31.000000)">
                                    <path d="M47,23.8 L40.91,23.8 C41.055,23.365 41.2,22.93 41.2,22.35 C41.2,19.885 39.315,18 36.85,18 C34.82,18 33.37,19.595 32.5,21.335 C31.63,19.595 30.18,18 28.15,18 C25.685,18 23.8,19.885 23.8,22.35 C23.8,22.93 23.945,23.365 24.09,23.8 L18,23.8 L18,32.5 L19.45,32.5 L19.45,47 L45.55,47 L45.55,32.5 L47,32.5 L47,23.8 Z M44.1,29.6 L33.95,29.6 L33.95,26.7 L44.1,26.7 L44.1,29.6 Z M36.85,20.9 C37.72,20.9 38.3,21.48 38.3,22.35 C38.3,23.22 37.72,23.8 36.85,23.8 L34.53,23.8 C35.11,22.35 35.98,20.9 36.85,20.9 Z M26.7,22.35 C26.7,21.48 27.28,20.9 28.15,20.9 C29.02,20.9 29.89,22.35 30.47,23.8 L28.15,23.8 C27.28,23.8 26.7,23.22 26.7,22.35 Z M20.9,26.7 L31.05,26.7 L31.05,29.6 L20.9,29.6 L20.9,26.7 Z M22.35,32.5 L31.05,32.5 L31.05,44.1 L22.35,44.1 L22.35,32.5 Z M42.65,44.1 L33.95,44.1 L33.95,32.5 L42.65,32.5 L42.65,44.1 Z" id="ic_gratitude"></path>
                                </g>
                            </g>
                        </g>
                    </g>
                </g>
            </g>
        </g>
    </g>
</svg>