<?xml version="1.0" encoding="UTF-8"?>
<svg width="29px" height="29px" viewBox="0 0 29 29" version="1.1" xmlns="http://www.w3.org/2000/svg" xmlns:xlink="http://www.w3.org/1999/xlink">
    <!-- Generator: sketchtool 57.1 (101010) - https://sketch.com -->
    <title>89E2A97C-5AC7-4BB3-AB75-165E5BEE0F02</title>
    <desc>Created with sketchtool.</desc>
    <g id="Careers" stroke="none" stroke-width="1" fill="none" fill-rule="evenodd">
        <g id="7-careers_landing_desktop" transform="translate(-1016.000000, -1369.000000)" fill="#C35BA9" fill-rule="nonzero">
            <g id="Group-4-Copy-2" transform="translate(225.000000, 1318.000000)">
                <g id="Group-6">
                    <g id="Group-5" transform="translate(743.000000, 0.000000)">
                        <g id="image_card_news">
                            <g id="image_news-1">
                                <g id="ic_benefit_uniform-copy-3" transform="translate(30.000000, 31.000000)">
                                    <path d="M41.2,21.45 L41.2,20 L23.8,20 L23.8,21.45 L18,21.45 L18,22.9 C18,23.045 18.29,34.79 28.585,38.56 C28.295,39.14 28.15,39.72 28.15,40.3 C28.15,42.185 29.31,43.78 31.05,44.36 L31.05,46.1 L26.7,46.1 L26.7,49 L38.3,49 L38.3,46.1 L33.95,46.1 L33.95,44.36 C35.69,43.78 36.85,42.185 36.85,40.3 C36.85,39.72 36.705,39.14 36.415,38.56 C46.855,34.645 47,23.045 47,22.9 L47,21.45 L41.2,21.45 Z M38.3,22.9 C38.01,30.44 35.11,35.95 32.5,35.95 C29.89,35.95 26.99,30.44 26.7,22.9 L38.3,22.9 Z M21.045,24.35 L23.945,24.35 C24.235,28.265 25.105,31.745 26.555,34.21 C22.495,31.31 21.335,26.67 21.045,24.35 Z M32.5,41.75 C31.63,41.75 31.05,41.17 31.05,40.3 C31.05,39.43 31.63,38.85 32.5,38.85 C33.37,38.85 33.95,39.43 33.95,40.3 C33.95,41.17 33.37,41.75 32.5,41.75 Z M38.59,34.21 C39.895,31.745 40.91,28.265 41.2,24.35 L44.1,24.35 C43.665,26.67 42.505,31.31 38.59,34.21 Z" id="ic_excellence"></path>
                                </g>
                            </g>
                        </g>
                    </g>
                </g>
            </g>
        </g>
    </g>
</svg>