<?xml version="1.0" encoding="UTF-8"?>
<svg width="65px" height="65px" viewBox="0 0 65 65" version="1.1" xmlns="http://www.w3.org/2000/svg" xmlns:xlink="http://www.w3.org/1999/xlink">
    <!-- Generator: sketchtool 57.1 (101010) - https://sketch.com -->
    <title>5B1AF651-68C8-4479-B63A-D693914B8468</title>
    <desc>Created with sketchtool.</desc>
    <g id="Careers" stroke="none" stroke-width="1" fill="none" fill-rule="evenodd">
        <g id="7-careers_landing_desktop" transform="translate(-1502.000000, -1361.000000)">
            <g id="Group-4-Copy-2" transform="translate(225.000000, 1318.000000)">
                <g id="Group-6">
                    <g id="Group-5-Copy-2" transform="translate(1239.000000, 0.000000)">
                        <g id="image_card_news">
                            <g id="image_news-1">
                                <g id="Group-17" transform="translate(31.000000, 43.000000)">
                                    <g id="ic_benefit_uniform-copy-2" transform="translate(7.000000, 0.000000)">
                                        <path d="M32.4558424,65 C50.3807092,65 64.9116848,50.4492544 64.9116848,32.5 C64.9116848,14.5507456 50.3807092,0 32.4558424,0 C14.5309756,0 0,14.5507456 0,32.5 C0,50.4492544 14.5309756,65 32.4558424,65 Z" id="ic" fill="#FFC737" opacity="0.140000001"></path>
                                        <path d="M34.8992652,21.6081352 L39.2328996,24.8843893 C39.7055523,25.2409884 40.3554498,25.2409884 40.8281025,24.8843893 L45.161737,21.6081352 C46.9258496,20.2003306 47.2885169,17.6509958 45.9877191,15.8019735 C44.6869213,13.9529513 42.1763233,13.4491048 40.2697815,14.654453 L40.0305011,14.8149226 L39.7912206,14.654453 C37.8846788,13.4491048 35.3740808,13.9529513 34.073283,15.8019735 C32.7724852,17.6509958 33.1351526,20.2003306 34.8992652,21.6081352 L34.8992652,21.6081352 Z M35.9095603,17.8103549 C36.0292449,17.3083901 36.3873554,16.898115 36.866682,16.7138127 C37.0544472,16.6459292 37.252088,16.6097807 37.4515898,16.606833 C37.7594626,16.6087492 38.059968,16.7017626 38.315658,16.8742823 L39.2993664,17.5295331 C39.743009,17.8234338 40.3179932,17.8234338 40.7616357,17.5295331 L41.7453442,16.8742823 C42.1743775,16.5889416 42.7138545,16.5291962 43.1943201,16.7138127 C43.6736468,16.898115 44.0317572,17.3083901 44.1514418,17.8103549 C44.3093283,18.4312844 44.0781731,19.0865985 43.5665341,19.4685406 L40.0305011,22.1430338 L36.494468,19.4685406 C35.9828291,19.0865985 35.7516739,18.4312844 35.9095603,17.8103549 L35.9095603,17.8103549 Z M48.8041169,28.6821695 C48.4579561,27.6490381 47.6813548,26.8189888 46.6771797,26.4088504 C45.685721,25.9932092 44.5627203,26.0372229 43.6064142,26.5292026 L39.4455934,28.6153072 C39.2386427,28.3158755 38.9876307,28.0498427 38.7011654,27.8263317 C37.8927447,27.147949 36.8210415,26.8771981 35.7899201,27.0908461 L31.8019129,27.8798216 L30.9378447,27.8798216 C28.7286588,27.8767334 26.5682048,28.5329151 24.7298468,29.7653393 C23.6431394,30.5146241 22.7015908,31.4572439 21.9515352,32.5468121 L20.5823194,34.5125646 C19.5518273,33.5105559 17.9172581,33.5105559 16.886766,34.5125646 L14.7731222,36.6387867 C13.7422926,37.6819392 13.7422926,39.3666695 14.7731222,40.409822 L23.5334447,49.2222769 C24.5704261,50.259241 26.24519,50.259241 27.2821714,49.2222769 L29.3958153,47.0960549 C30.3364331,46.1376412 30.4218618,44.6251479 29.5952156,43.5657239 L30.0471898,43.2581572 C30.7529245,42.788187 31.5803397,42.5370903 32.4267007,42.5360441 C35.0487491,42.538813 37.6123356,41.7567814 39.7912206,40.2894698 C40.5144363,39.8010047 41.1908842,39.2458817 41.811811,38.6312841 L47.9134619,32.4933223 C48.9108719,31.4990564 49.2566784,30.0193344 48.8041169,28.6821695 Z M25.4078081,47.3367593 L16.6474856,38.5243043 L18.7611294,36.3980823 L27.5214519,45.2105372 L25.4078081,47.3367593 Z M46.0258052,30.5944321 L39.9241542,36.7323939 C39.4349898,37.2324466 38.8959875,37.680554 38.315658,38.0696405 C36.5710562,39.2375746 34.5223184,39.860971 32.4267007,39.8615509 C31.0537918,39.8584424 29.7113,40.2682435 28.5716271,41.0383279 L27.7075589,41.6133439 L22.4965628,36.3713373 L24.0784723,34.0980182 C24.6816961,33.2501251 25.434088,32.5204487 26.298463,31.9450512 C27.7036715,30.9917675 29.3626439,30.488317 31.0574849,30.5008249 L32.0544867,30.5008249 L32.3203539,30.5008249 L36.308361,29.6851045 C36.5614476,29.6137542 36.8331515,29.6660656 37.0421609,29.8263837 C37.2511702,29.9867017 37.3732366,30.2364269 37.3718296,30.5008249 C37.3746967,30.8235818 37.1939972,31.1196151 36.9065621,31.2630554 L32.7856214,33.3357876 C32.1890251,33.6969075 31.97051,34.4599285 32.2846823,35.0849893 C32.5988547,35.71005 33.3392536,35.9853416 33.9820235,35.7160865 L38.0896709,33.6567268 C38.9925279,33.2031336 39.6564967,32.379203 39.9108609,31.3967801 L44.8294031,28.9228739 C45.2854614,28.7180133 45.8218542,28.8646132 46.1121604,29.2734606 C46.4024667,29.682308 46.3663567,30.240272 46.0258052,30.6078046 L46.0258052,30.5944321 Z" id="ic_caring" fill="#F3BA27" fill-rule="nonzero"></path>
                                    </g>
                                </g>
                            </g>
                        </g>
                    </g>
                </g>
            </g>
        </g>
    </g>
</svg>