<?xml version="1.0" encoding="UTF-8"?>
<svg width="65px" height="65px" viewBox="0 0 65 65" version="1.1" xmlns="http://www.w3.org/2000/svg" xmlns:xlink="http://www.w3.org/1999/xlink">
    <!-- Generator: sketchtool 57.1 (101010) - https://sketch.com -->
    <title>A3145C9C-D158-4ABD-B283-534673B1FD7C</title>
    <desc>Created with sketchtool.</desc>
    <g id="Careers" stroke="none" stroke-width="1" fill="none" fill-rule="evenodd">
        <g id="7-careers_landing_desktop" transform="translate(-251.000000, -1348.000000)" fill="#F33B41">
            <g id="Group-4-Copy-2" transform="translate(225.000000, 1318.000000)">
                <g id="Group-6">
                    <g id="Group-5">
                        <g id="image_card_news">
                            <g id="image_news-1">
                                <g id="Group-31" transform="translate(26.000000, 30.000000)">
                                    <g id="ic_benefit_uniform-copy">
                                        <path d="M32.4558424,65 C50.3807092,65 64.9116848,50.4492544 64.9116848,32.5 C64.9116848,14.5507456 50.3807092,0 32.4558424,0 C14.5309756,0 0,14.5507456 0,32.5 C0,50.4492544 14.5309756,65 32.4558424,65 Z" id="ic" opacity="0.099999994"></path>
                                        <path d="M38.6,20 C36.05,20 33.5,21.2444444 32,23.4222222 C30.5,21.2444444 27.95,20 25.4,20 C20.75,20 17,23.8888889 17,28.7111111 C17,39.4444444 30.65,47.5333333 31.25,47.8444444 C31.55,48 31.7,48 32,48 C32.3,48 32.45,48 32.75,47.8444444 C33.35,47.5333333 47,39.6 47,28.7111111 C47,23.8888889 43.25,20 38.6,20 Z M32,44.5777778 C29.3,42.8666667 20,36.3333333 20,28.7111111 C20,25.6 22.4,23.1111111 25.4,23.1111111 C27.8,23.1111111 29.9,24.8222222 30.5,27.1555556 C30.8,27.7777778 31.4,28.2444444 32,28.2444444 C32.6,28.2444444 33.2,27.7777778 33.5,27.1555556 C34.1,24.8222222 36.2,23.1111111 38.6,23.1111111 C41.6,23.1111111 44,25.6 44,28.7111111 C44,36.3333333 34.7,42.8666667 32,44.5777778 Z" id="ic_passion" fill-rule="nonzero"></path>
                                    </g>
                                </g>
                            </g>
                        </g>
                    </g>
                </g>
            </g>
        </g>
    </g>
</svg>