<?xml version="1.0" encoding="UTF-8"?>
<svg width="28px" height="34px" viewBox="0 0 28 34" version="1.1" xmlns="http://www.w3.org/2000/svg" xmlns:xlink="http://www.w3.org/1999/xlink">
    <!-- Generator: sketchtool 57.1 (101010) - https://sketch.com -->
    <title>BA6A3EB9-0878-4216-ADD5-5EF43239A4C3</title>
    <desc>Created with sketchtool.</desc>
    <g id="Sustainability" stroke="none" stroke-width="1" fill="none" fill-rule="evenodd">
        <g id="6-sustainability_landing_desktop" transform="translate(-1314.000000, -1389.000000)" fill="#60A364" fill-rule="nonzero" stroke="#60A364">
            <g id="Group-2" transform="translate(0.000000, 1087.000000)">
                <g id="quick-link-ctas" transform="translate(0.000000, 237.000000)">
                    <g id="Group-8" transform="translate(225.000000, 0.000000)">
                        <g id="quick-link" transform="translate(1020.000000, 0.000000)">
                            <g id="ic_waste" transform="translate(50.000000, 50.000000)">
                                <path d="M43.2142857,29.1875 L43.2142857,25.375 L45.0714286,25.375 L45.0714286,19.75 L37.6428571,19.75 L37.6428571,16 L28.3571429,16 L28.3571429,19.75 L20.9285714,19.75 L20.9285714,25.375 L22.7857143,25.375 L22.7857143,29.1875 L20,29.1875 L20,31.0625 L22.7857143,31.0625 L22.7857143,48 L43.2142857,48 L43.2142857,31.0625 L46,31.0625 L46,29.1875 L43.2142857,29.1875 Z M30.2142857,17.875 L35.7857143,17.875 L35.7857143,19.75 L30.2142857,19.75 L30.2142857,17.875 Z M41.3571429,46.125 L24.6428571,46.125 L24.6428571,25.375 L41.3571429,25.375 L41.3571429,46.125 Z M22.7857143,23.5 L22.7857143,21.625 L43.2142857,21.625 L43.2142857,23.5 L22.7857143,23.5 Z"></path>
                            </g>
                        </g>
                    </g>
                </g>
            </g>
        </g>
    </g>
</svg>