<?xml version="1.0" encoding="UTF-8"?>
<svg width="10px" height="21px" viewBox="0 0 10 21" version="1.1" xmlns="http://www.w3.org/2000/svg" xmlns:xlink="http://www.w3.org/1999/xlink">
    <!-- Generator: sketchtool 56.2 (101010) - https://sketch.com -->
    <title>E059846D-1930-43E8-8BFD-DB25A73589B8</title>
    <desc>Created with sketchtool.</desc>
    <g id="Organiser" stroke="none" stroke-width="1" fill="none" fill-rule="evenodd">
        <g id="2-organiser_landing_desktop" transform="translate(-1521.000000, -6618.000000)" fill="#FFFFFF">
            <g id="footer-elements" transform="translate(0.000000, 5337.000000)">
                <g id="footer_desktop" transform="translate(0.000000, 1099.000000)">
                    <g id="Group-11-Copy-2">
                        <g>
                            <g transform="translate(1503.000000, 106.000000)">
                                <g id="social-icons" transform="translate(0.000000, 63.000000)">
                                    <g id="ic_social_facebook" transform="translate(0.000000, 1.000000)">
                                        <path d="M27.3692316,22.8830817 L24.4286514,22.8830817 C24.4286514,27.4179854 24.4286514,33 24.4286514,33 L20.0712926,33 C20.0712926,33 20.0712926,27.4720979 20.0712926,22.8830817 L18,22.8830817 L18,19.307444 L20.0712926,19.307444 L20.0712926,16.9946642 C20.0712926,15.3382613 20.8867047,12.75 24.468694,12.75 L27.6975806,12.7619469 L27.6975806,16.2328735 C27.6975806,16.2328735 25.7354951,16.2328735 25.3539987,16.2328735 C24.9725022,16.2328735 24.4301075,16.4169964 24.4301075,17.2068974 L24.4301075,19.3081468 L27.75,19.3081468 L27.3692316,22.8830817 Z"></path>
                                    </g>
                                </g>
                            </g>
                        </g>
                    </g>
                </g>
            </g>
        </g>
    </g>
</svg>