<?xml version="1.0" encoding="UTF-8"?>
<svg width="22px" height="22px" viewBox="0 0 22 22" version="1.1" xmlns="http://www.w3.org/2000/svg" xmlns:xlink="http://www.w3.org/1999/xlink">
    <!-- Generator: sketchtool 56.2 (101010) - https://sketch.com -->
    <title>ED1F5B3A-7EDF-4B65-A55B-78903056EF3D</title>
    <desc>Created with sketchtool.</desc>
    <g id="Organiser" stroke="none" stroke-width="1" fill="none" fill-rule="evenodd">
        <g id="2-organiser_landing_desktop" transform="translate(-1775.000000, -6617.000000)" fill="#FFFFFF" fill-rule="nonzero" stroke="#FFFFFF" stroke-width="0.1">
            <g id="footer-elements" transform="translate(0.000000, 5337.000000)">
                <g id="footer_desktop" transform="translate(0.000000, 1099.000000)">
                    <g id="Group-11-Copy-2">
                        <g>
                            <g transform="translate(1503.000000, 106.000000)">
                                <g id="social-icons" transform="translate(0.000000, 63.000000)">
                                    <g id="ic_linkedin-copy" transform="translate(260.000000, 0.000000)">
                                        <path d="M32.9491685,18.8800726 C32.9960312,19.946721 33,20.2866016 33,23.001984 C33,25.7173664 32.9882462,26.0572471 32.9413834,27.1238954 C32.8945207,28.1865757 32.7224873,28.9133434 32.4764198,29.550219 C31.9566558,30.8941745 30.8937727,31.9568548 29.5494081,32.4765197 C28.9163798,32.7226928 28.1856572,32.8945408 27.1227742,32.9413946 C26.0559223,32.988401 25.7159768,33 23.0000763,33 C20.2841758,33 19.9440777,32.988401 18.8773784,32.9413946 C17.8143428,32.8945408 17.087589,32.7226928 16.4505919,32.4765197 C15.7862709,32.2265311 15.1805665,31.8318605 14.6803413,31.3239473 C14.1723312,30.8238176 13.7777379,30.2221968 13.5237328,29.550219 C13.2775127,28.9171589 13.1054793,28.1865757 13.0586166,27.1238954 C13.0117538,26.0572471 13,25.7173664 13,23.001984 C13,20.2866016 13.0117538,19.946721 13.0625854,18.8761046 C13.1094481,17.8134243 13.281329,17.0868092 13.527549,16.4499336 C13.7777379,15.7857393 14.1723312,15.1801505 14.6803413,14.6800208 C15.1805665,14.1681395 15.7823021,13.7774369 16.4545607,13.5234803 C17.087589,13.2774598 17.8183116,13.1054592 18.8811946,13.0586054 C19.9480465,13.0117516 20.287992,13 23.0038925,13 C25.719793,13 26.0597385,13.0117516 27.1305592,13.0625734 C28.1934423,13.1094272 28.9203486,13.2812753 29.5571931,13.5274484 C30.2215141,13.7774369 30.8272186,14.1721075 31.3274437,14.6800208 C31.8394227,15.1801505 32.2301997,15.7817713 32.4842048,16.4537491 C32.7304249,17.0868092 32.9023057,17.8173924 32.9491685,18.8800726 Z M31.1477778,27.0457549 C31.1946405,25.9908582 31.2063944,25.6782962 31.2063944,23.0097676 C31.2063944,20.341239 31.1946405,20.0248615 31.1477778,18.9699647 C31.1047313,17.997024 30.9406355,17.4657601 30.8038635,17.1141278 C30.6435839,16.680387 30.3895788,16.2896845 30.0574183,15.965371 C29.7370116,15.6332738 29.3422658,15.3793172 28.9085948,15.2192207 C28.5568954,15.0824748 28.0293464,14.9184103 27.0524038,14.875372 C26.001122,14.8285182 25.6846841,14.8167666 23.0116775,14.8167666 C20.3427924,14.8167666 20.0262019,14.8285182 18.9711039,14.875372 C17.99813,14.9184103 17.4666122,15.0824748 17.1149129,15.2192207 C16.6810893,15.3793172 16.2903123,15.6332738 15.9660894,15.965371 C15.6299601,16.2858691 15.375955,16.680387 15.2156754,17.1141278 C15.0789034,17.4657601 14.9148076,17.9932085 14.8719136,18.9699647 C14.8248983,20.0208934 14.8132971,20.341239 14.8132971,23.0097676 C14.8132971,25.6782962 14.8248983,25.9948262 14.8719136,27.049723 C14.9148076,28.0225112 15.0789034,28.5539276 15.2156754,28.9055598 C15.375955,29.3391481 15.6299601,29.7298506 15.9621206,30.0541642 C16.2825272,30.3862613 16.6772731,30.6402179 17.1109441,30.800467 C17.4626434,30.9372129 17.9901924,31.1012774 18.9671351,31.1441631 C20.0184169,31.1911695 20.3388235,31.2027685 23.0078613,31.2027685 C25.6768991,31.2027685 25.993337,31.1911695 27.048435,31.1441631 C28.0215614,31.1012774 28.5529266,30.9372129 28.904626,30.800467 C29.7760893,30.4644018 30.4677342,29.7728889 30.8038635,28.9015918 C30.9406355,28.5499595 31.1047313,28.0225112 31.1477778,27.0457549 Z M23.0038925,17.8642461 C25.8409949,17.8642461 28.1426107,20.1654228 28.1426107,23.001984 C28.1426107,25.8385452 25.8409949,28.1397219 23.0038925,28.1397219 C20.1669427,28.1397219 17.8651743,25.8385452 17.8651743,23.001984 C17.8651743,20.1654228 20.1669427,17.8642461 23.0038925,17.8642461 Z M23.0038925,26.3347069 C24.8445135,26.3347069 26.3372513,24.8422538 26.3372513,23.001984 C26.3372513,21.1617142 24.8445135,19.6692612 23.0038925,19.6692612 C21.1634242,19.6692612 19.6705337,21.1617142 19.6705337,23.001984 C19.6705337,24.8422538 21.1634242,26.3347069 23.0038925,26.3347069 Z M29.5455919,17.6611114 C29.5455919,18.3234742 29.0084261,18.8605375 28.3457843,18.8605375 C27.683295,18.8605375 27.1461293,18.3234742 27.1461293,17.6611114 C27.1461293,16.9985959 27.683295,16.4616852 28.3457843,16.4616852 C29.0084261,16.4616852 29.5455919,16.9985959 29.5455919,17.6611114 Z" id="ic_instagram"></path>
                                    </g>
                                </g>
                            </g>
                        </g>
                    </g>
                </g>
            </g>
        </g>
    </g>
</svg>