<?xml version="1.0" encoding="UTF-8"?>
<svg width="21px" height="15px" viewBox="0 0 21 15" version="1.1" xmlns="http://www.w3.org/2000/svg" xmlns:xlink="http://www.w3.org/1999/xlink">
    <!-- Generator: sketchtool 56.2 (101010) - https://sketch.com -->
    <title>22B6F011-C69D-4B4B-917D-E1474C58FF4F</title>
    <desc>Created with sketchtool.</desc>
    <g id="Organiser" stroke="none" stroke-width="1" fill="none" fill-rule="evenodd">
        <g id="2-organiser_landing_desktop" transform="translate(-1645.000000, -6621.000000)" fill="#FFFFFF" fill-rule="nonzero">
            <g id="footer-elements" transform="translate(0.000000, 5337.000000)">
                <g id="footer_desktop" transform="translate(0.000000, 1099.000000)">
                    <g id="Group-11-Copy-2">
                        <g>
                            <g transform="translate(1503.000000, 106.000000)">
                                <g id="social-icons" transform="translate(0.000000, 63.000000)">
                                    <g id="ic_youtube" transform="translate(130.000000, 1.000000)">
                                        <path d="M28.7943871,15.75 L16.9556129,15.75 C14.6328916,15.75 12.75,17.6225221 12.75,19.9322983 L12.75,25.8177017 C12.75,28.1275466 14.6329607,30 16.9556129,30 L28.7943871,30 C31.1171084,30 33,28.1274779 33,25.8177017 L33,19.9322983 C33,17.6225221 31.1170393,15.75 28.7943871,15.75 L28.7943871,15.75 Z M25.9500763,23.1613251 L20.4128103,25.7875984 C20.2651868,25.8576333 20.0946871,25.7507596 20.0946871,25.5882155 L20.0946871,20.1714066 C20.0946871,20.0064569 20.269679,19.8995833 20.4174408,19.9741543 L25.9547068,22.7646212 C26.1196084,22.8475771 26.1166366,23.0824242 25.9500763,23.1613251 L25.9500763,23.1613251 Z"></path>
                                    </g>
                                </g>
                            </g>
                        </g>
                    </g>
                </g>
            </g>
        </g>
    </g>
</svg>